/* XPM */
static char *result[] = {
/* columns rows colors chars-per-pixel */
"50 50 121 2 ",
"   c #323232",
".  c gray24",
"X  c #3F3F3F",
"o  c gray25",
"O  c #414141",
"+  c gray26",
"@  c #434343",
"#  c #444444",
"$  c gray27",
"%  c #464646",
"&  c gray28",
"*  c #484848",
"=  c #494949",
"-  c gray29",
";  c #4B4B4B",
":  c #4C4C4C",
">  c gray30",
",  c #4E4E4E",
"<  c gray31",
"1  c #505050",
"2  c #515151",
"3  c gray32",
"4  c #535353",
"5  c gray33",
"6  c #555555",
"7  c #565656",
"8  c gray34",
"9  c #585858",
"0  c gray35",
"q  c #5A5A5A",
"w  c #5B5B5B",
"e  c gray36",
"r  c #5D5D5D",
"t  c gray37",
"y  c #5F5F5F",
"u  c #606060",
"i  c gray38",
"p  c #626262",
"a  c gray39",
"s  c #646464",
"d  c #656565",
"f  c gray40",
"g  c #676767",
"h  c #686868",
"j  c DimGray",
"k  c #6A6A6A",
"l  c gray42",
"z  c #6C6C6C",
"x  c #6D6D6D",
"c  c gray43",
"v  c #6F6F6F",
"b  c gray44",
"n  c #717171",
"m  c #727272",
"M  c gray45",
"N  c #747474",
"B  c gray46",
"V  c #767676",
"C  c #777777",
"Z  c gray47",
"A  c #797979",
"S  c gray48",
"D  c #7B7B7B",
"F  c #7C7C7C",
"G  c gray49",
"H  c #7E7E7E",
"J  c gray50",
"K  c #808080",
"L  c #818181",
"P  c gray51",
"I  c #838383",
"U  c #848484",
"Y  c gray52",
"T  c #868686",
"R  c gray53",
"E  c #888888",
"W  c #898989",
"Q  c gray54",
"!  c #8B8B8B",
"~  c gray55",
"^  c #8D8D8D",
"/  c #8E8E8E",
"(  c gray56",
")  c #909090",
"_  c gray57",
"`  c #929292",
"'  c #939393",
"]  c gray58",
"[  c #959595",
"{  c gray59",
"}  c #979797",
"|  c #989898",
" . c gray60",
".. c #9A9A9A",
"X. c #9B9B9B",
"o. c #9D9D9D",
"O. c gray62",
"+. c #9F9F9F",
"@. c #A0A0A0",
"#. c gray63",
"$. c #A2A2A2",
"%. c gray64",
"&. c #A5A5A5",
"*. c gray65",
"=. c #A7A7A7",
"-. c gray66",
";. c #A9A9A9",
":. c #AAAAAA",
">. c #ACACAC",
",. c gray68",
"<. c #AEAEAE",
"1. c #AFAFAF",
"2. c gray69",
"3. c #B7B7B7",
"4. c gray72",
"5. c gray73",
"6. c #BCBCBC",
"7. c gray75",
"8. c gray77",
"9. c #C6C6C6",
"0. c None",
/* pixels */
"0.0.0.0.0.0.0.0.0.0.0.0.0.0.0.0.0.0.0.0.0.0.0.0.0.0.0.0.0.0.0.0.0.0.0.0.0.0.0.0.0.0.0.0.0.0.0.0.0.0.",
"0.0.0.0.0.0.0.0.0.0.0.0.0.0.0.0.0.0.0.0.0.0.0.0.0.0.0.0.0.0.0.0.0.0.0.0.0.0.0.0.0.0.0.0.0.0.0.0.0.0.",
"0.0.0.0.0.0.0.0.0.0.0.0.0.0.0.0.0.0.0.0.0.0.0.0.0.0.0.0.0.0.0.0.0.0.0.0.0.0.0.0.0.0.0.0.0.0.0.0.0.0.",
"0.0.0.0.0.0.0.0.0.0.0.0.0.0.0.0.0.0.0.0.0.0.0.0.0.0.0.0.0.0.0.0.0.0.0.0.0.0.0.0.0.0.0.0.0.0.0.0.0.0.",
"0.0.0.0.0.0.0.0.0.0.0.0.0.0.0.0.0.0.0.0.0.0.0.0.0.0.0.0.0.0.0.0.0.0.0.0.0.0.0.0.0.0.0.0.0.0.0.0.0.0.",
"0.0.0.0.0.0.0.0.0.0.0.0.0.0.0.0.0.0.0.0.0.0.0.0.0.0.0.0.0.0.0.0.0.0.0.0.0.0.0.0.0.0.0.0.0.0.0.0.0.0.",
"0.0.0.0.0.0.0.0.0.0.0.0.0.0.0.0.0.0.0.0.0.0.0.0.0.0.0.0.0.0.0.0.0.0.0.0.0.0.0.0.0.0.0.0.0.0.0.0.0.0.",
"0.0.0.0.0.0.0.0.0.0.0.0.0.0.0.0.0.0.0.0.0.0.0.0.0.0.0.0.0.0.0.0.0.0.0.0.0.0.0.0.0.0.0.0.0.0.0.0.0.0.",
"0.0.0.0.0.0.0.0.0.0.0.0.0.0.0.0.0.0.0.0.0.0.0.0.0.0.0.0.0.0.0.0.0.0.0.0.0.0.0.0.0.0.0.0.0.0.0.0.0.0.",
"0.0.0.0.0.0.0.0.0.0.0.0.0.0.0.0.0.0.0.0.0.0.0.0.0.0.0.0.0.0.0.0.0.0.0.0.0.0.0.0.0.0.0.0.0.0.0.0.0.0.",
"0.0.0.0.0.0.0.0.0.0.0.0.0.0.0.0.0.0.0.0.0.0.0.0.0.0.0.0.0.0.0.0.0.0.0.0.0.0.0.0.0.0.0.0.0.0.0.0.0.0.",
"0.0.0.0.0.0.0.0.0.0.0.0.0.0.0.0.0.0.0.0.0.0.0.0.0.0.0.0.0.0.0.0.0.0.0.0.0.0.0.0.0.0.0.0.0.0.0.0.0.0.",
"0.0.0.0.0.0.0.0.0.0.0.0.0.0.0.0.0.0.0.0.0.0.0.0.0.0.0.0.0.0.0.0.0.0.0.0.0.0.0.0.0.0.0.0.0.0.0.0.0.0.",
"0.0.0.0.0.0.0.0.0.0.0.0.0.0.0.0.0.0.0.0.0.0.0.0.0.0.0.0.0.0.0.0.0.0.0.0.0.0.0.0.0.0.0.0.0.0.0.0.0.0.",
"0.0.0.0.0.0.0.0.0.0.0.0.0.0.0.0.0.0.0.0.0.0.0.0.0.0.0.0.0.0.0.0.0.0.0.0.0.0.0.0.0.0.0.0.0.0.0.0.0.0.",
"0.0.0.0.0.0.0.0.0.0.0.0.0.0.0.0.0.0.0.0.0.0.0.0.0.0.0.0.0.0.0.0.0.0.0.0.0.0.0.0.0.0.0.0.0.0.0.0.0.0.",
"0.0.0.0.0.0.0.0.0.0.0.0.0.0.0.0.0.0.0.0.0.0.0.0.0.0.0.0.0.0.0.0.0.0.0.0.0.0.0.0.0.0.0.0.0.0.0.0.0.0.",
"0.0.0.0.0.0.0.0.0.0.0.0.0.0.0.0.0.0.0.0.0.0.0.0.0.0.0.0.0.0.0.0.0.0.0.0.0.0.0.0.0.0.0.0.0.0.0.0.0.0.",
"0.0.0.0.0.0.0.0.0.0.0.0.0.0.0.0.0.0.0.0.0.0.0.0.0.0.0.0.0.0.0.0.0.0.0.0.0.0.0.0.0.0.0.0.0.0.0.0.0.0.",
"0.0.0.0.0.0.0.0.0.0.0.0.0.0.0.0.0.0.0.0.0.0.0.0.0.0.0.0.0.0.0.0.0.0.0.0.0.0.0.0.0.0.0.0.0.0.0.0.0.0.",
"0.0.0.0.0.0.0.0.0.0.0.0.0.0.0.0.0.0.0.0.0.0.0.0.0.0.0.0.0.0.0.0.0.0.0.0.0.0.0.0.0.0.0.0.0.0.0.0.0.0.",
"0.0.0.0.0.0.0.0.0.0.0.0.0.0.0.0.0.0.0.0.0.0.0.0.0.0.0.0.0.0.0.0.0.0.0.0.0.0.0.0.0.0.0.0.0.0.0.0.0.0.",
"0.0.0.0.0.0.0.0.0.0.0.0.0.0.0.0.0.0.0.0.0.0.0.0.0.0.0.0.0.0.0.0.0.0.0.0.0.0.0.0.0.0.0.0.0.0.0.0.0.0.",
"0.0.0.0.0.0.0.0.0.0.0.0.0.0.0.0.0.0.0.0.0.0.0.0.0.0.0.0.0.1.3.6.5.<.O.+.%.0.0.0.0.0.0.0.0.0.0.0.0.0.",
"0.0.0.0.0.0.0.0.0.0.0.0.0.0.0.0.0.0.0.0.0.0.0.0.0.0.0.! } 5.9.8.6.:.%.=.4.,.>.>.2.0.0.0.0.0.0.0.0.0.",
"0.0.0.0.0.0.0.0.0.0.0.0.0.0.0.0.0.0.0.0.0.0.0.0.O.} ^ { [ ] 1.>.#.| T / O.=.<.2.7.0.0.0.0.0.0.0.0.0.",
"0.0.0.0.0.0.0.0.0.0.0.0.0.0.0.0.0.0.0.0.0.0.0.&.>.| ! K Z ^ -.%...I F _ ..#.&.,.:.Q 0.0.0.0.0.0.0.0.",
"0.0.0.0.0.0.0.0.0.0.0.0.0.0.0.0.0.0.0.0.0.S +.1.:.*.( Z J | @.' ( Q E P [  .! K L { K 0.0.0.0.0.0.0.",
"0.0.0.0.0.0.0.0.0.0.0.0.0.0.0.0.0.0.0.0.0.H J &.,.#.K u c U (  .{ Y L v B K m N A E Y f 0.0.0.0.0.0.",
"0.0.0.0.0.0.0.0.0.0.0.0.0.0.0.0.0.0.0.m v j M T R D N d u N ! o.~ h 8 s i z C V G / Z i r 0.0.0.0.0.",
"0.0.0.0.0.0.0.0.0.0.0.0.0.0.0.] ` ] T K 9 8 z N Z l x h f l H Y F c p q h b B Z m U N j Z 0.0.0.0.0.",
"0.0.0.0.0.0.0.0.0.0.0.0.0.} =.-. .X.J y w e y p c x g d p e j k h 0 3 y g s g C B k s s s 0.0.0.0.0.",
"0.0.0.0.0.0.0.0.0.0.0.0.} X.#.) D b x u f M m c z Z n 8 u l t 5 ; 7 w b j u l j r 4 r a p e 0.0.0.0.",
"0.0.0.0.0.0.0.0.0.0.#.:.o.( ) K Z i u d b F ! Y } ) M t j M 0 > < 4 s N k p y 1 1 4 e f y q 0.0.0.0.",
"0.0.0.0.0.0.0.0.n o.$.| Q D G M c f s x S F U ( #.{ Q K L J v 1 $ > g c a w 1 : : & @ < 3 , 0.0.0.0.",
"0.0.0.0.0.0.0.w S P ` T C D C m c r 7 t i n W @.;._ O.` S c a @   # 3 ; & - = : : # + 1 5 0.0.0.0.0.",
"0.0.0.0.0.0.0.3 j L B n b V c f 9 6 - > 5 s L L ` / } R k 8 , : + # - & + . + : o O - 0.0.0.0.0.0.0.",
"0.0.0.0.0.0.0.; i s t w y 6 9 w 5 5 9 , - 7 m J S G m t < % , , 0.0.0.0.0.0.0.0.0.0.0.0.0.0.0.0.0.0.",
"0.0.0.0.0.0.0.0.8 , X O : , 9 4 0.0.0.> < < y x M A i < * @ o 0.0.0.0.0.0.0.0.0.0.0.0.0.0.0.0.0.0.0.",
"0.0.0.0.0.0.0.0.0.0.0.0.0.0.0.0.0.0.0.0.: 2 9 9 0 9 t , & 0.0.0.0.0.0.0.0.0.0.0.0.0.0.0.0.0.0.0.0.0.",
"0.0.0.0.0.0.0.0.0.0.0.0.0.0.0.0.0.0.0.0.0.$ < < + @ > 0.0.0.0.0.0.0.0.0.0.0.0.0.0.0.0.0.0.0.0.0.0.0.",
"0.0.0.0.0.0.0.0.0.0.0.0.0.0.0.0.0.0.0.0.0.0.0.0.0.0.0.0.0.0.0.0.0.0.0.0.0.0.0.0.0.0.0.0.0.0.0.0.0.0.",
"0.0.0.0.0.0.0.0.0.0.0.0.0.0.0.0.0.0.0.0.0.0.0.0.0.0.0.0.0.0.0.0.0.0.0.0.0.0.0.0.0.0.0.0.0.0.0.0.0.0.",
"0.0.0.0.0.0.0.0.0.0.0.0.0.0.0.0.0.0.0.0.0.0.0.0.0.0.0.0.0.0.0.0.0.0.0.0.0.0.0.0.0.0.0.0.0.0.0.0.0.0.",
"0.0.0.0.0.0.0.0.0.0.0.0.0.0.0.0.0.0.0.0.0.0.0.0.0.0.0.0.0.0.0.0.0.0.0.0.0.0.0.0.0.0.0.0.0.0.0.0.0.0.",
"0.0.0.0.0.0.0.0.0.0.0.0.0.0.0.0.0.0.0.0.0.0.0.0.0.0.0.0.0.0.0.0.0.0.0.0.0.0.0.0.0.0.0.0.0.0.0.0.0.0.",
"0.0.0.0.0.0.0.0.0.0.0.0.0.0.0.0.0.0.0.0.0.0.0.0.0.0.0.0.0.0.0.0.0.0.0.0.0.0.0.0.0.0.0.0.0.0.0.0.0.0.",
"0.0.0.0.0.0.0.0.0.0.0.0.0.0.0.0.0.0.0.0.0.0.0.0.0.0.0.0.0.0.0.0.0.0.0.0.0.0.0.0.0.0.0.0.0.0.0.0.0.0.",
"0.0.0.0.0.0.0.0.0.0.0.0.0.0.0.0.0.0.0.0.0.0.0.0.0.0.0.0.0.0.0.0.0.0.0.0.0.0.0.0.0.0.0.0.0.0.0.0.0.0.",
"0.0.0.0.0.0.0.0.0.0.0.0.0.0.0.0.0.0.0.0.0.0.0.0.0.0.0.0.0.0.0.0.0.0.0.0.0.0.0.0.0.0.0.0.0.0.0.0.0.0."
};
