/* XPM */
static char *result[] = {
/* columns rows colors chars-per-pixel */
"50 50 88 1 ",
"  c #27120F",
". c #231210",
"X c #231311",
"o c #241110",
"O c #251110",
"+ c #241210",
"@ c #251210",
"# c #241310",
"$ c #251310",
"% c #241211",
"& c #251211",
"* c #241311",
"= c #251311",
"- c #261210",
"; c #271210",
": c #261310",
"> c #271310",
", c #261211",
"< c #261311",
"1 c #271311",
"2 c #241312",
"3 c #251312",
"4 c #261312",
"5 c #271312",
"6 c #251411",
"7 c #261411",
"8 c #271411",
"9 c #271511",
"0 c #251412",
"q c #261412",
"w c #271412",
"e c #261512",
"r c #271512",
"t c #261413",
"y c #271413",
"u c #261513",
"i c #271513",
"p c #271514",
"a c #271614",
"s c #281310",
"d c #281311",
"f c #281312",
"g c #281411",
"h c #291411",
"j c #281511",
"k c #281412",
"l c #291412",
"z c #281512",
"x c #291512",
"c c #281413",
"v c #291413",
"b c #281513",
"n c #291513",
"m c #2A1412",
"M c #2A1512",
"N c #2A1513",
"B c #2B1513",
"V c #281612",
"C c #291612",
"Z c #281613",
"A c #291613",
"S c #291713",
"D c #2A1612",
"F c #2A1613",
"G c #2B1613",
"H c #2A1713",
"J c #281514",
"K c #291514",
"L c #2A1514",
"P c #281614",
"I c #291614",
"U c #291714",
"Y c #291615",
"T c #291715",
"R c #2A1614",
"E c #2B1614",
"W c #2A1714",
"Q c #2B1714",
"! c #2B1615",
"~ c #2A1715",
"^ c #2B1715",
"/ c #2C1715",
"( c #2B1814",
") c #2B1815",
"_ c #2B1816",
"` c #2C1814",
"' c #2C1815",
"] c #2D1916",
/* pixels */
"N^Fnlxbb@w<18bIbbZwb4i7zkkx1xkkxExxFFKJnkxAFFbbzII",
"FnnkRRbqbzbngbqbkbz1IbnnwbzxxxxzAzAkbbbAkkkkzwnRkA",
"'G^FnN<<bwwk8kkbi78rqiqP==wRknInn~nkkPbIcbkzAknkRA",
"FRkzIbqPiq=q5@qr7bxR8z8zZz8fnnybb!bkFn~WqbWRMNWnCA",
"EFnRRbwb8bi+4qqqiUz1xnFlNExFNEEnbRRx8xxlRzEGgFFlQQ",
"/xxnbrzzzgknNngFxMEFWFGlnxwn!IRbiqbIwkR^AFnWxMFAEN",
"GNQAbxWRlgNGmFQMMxKA~RxnnrqrI<bIIiZ8kFF/FFk'xGQxxF",
"REN1OnRbckbnkI~ngMNA~Rlxk8RgNllNnxngxnk^^ExlxFMxQQ",
"xzjznQFngRk1kw78n>wZzzcRzIzkllnNd;kgzkvIInzFM'nFnA",
"RxlgMRxxhNQxMxAAAn18xI<qwwwnkbiy<@<k:<wywbbnNFRAkn",
"NnkKbx1nnn~rRxxxzg:-1Ag:ibbJiiyPpi4<=itywbElQQxbWF",
"xkAPbnnIYuaqKzknw7w32iwq3yqqwwzlAnkFFFlnknlRzQD~(H",
"Fnxnw5FAIIyr44wInRwwbxFW>dn<wbw8A:wkIlzbK<gxnxQxRF",
"FWkkknMFbz&q8w8^n-=q<8zn1knbyb775bwwzzInWWW8QzkRAA",
"bAwybbbbbwwqwiiyiq77@ww4wkb8wAZ<<nknlz~gQ((FCHAnkn",
"nkARnFEEmknwciwiwZi4q7q5w<w<Zr<wwz1zlgFF^RWAg'nxQR",
"IkFNQRNNnk51xldgx>b,wnnNAnAxkbdk89AAnzAFWnzFFQWCkk",
"nRlk^bxniwwww=0%qi*qiqr7wbrzxR1nAwwzRxx1nk8IFzRnb1",
"xzFRvnRlwwwqpJt+yi<bPb)AzzkxQFW^)^^FQAFFx8xwbznn^W",
"wzFnbnnZbIrZTbybybkNnbnAnnFnxN)W^EMNhCxxAgRxFzgnnn",
"bnbA7bbi8ZkbPRxRk5nRnww=bnnbbRFxnnllNnxxxAzAnAwbwb",
"IRzqbwnnrzkRnE]QRkRFIIrqIAIngkgxHzWQAAFAQFxnknbwbb",
"Aw<c7bxW8bbbAURRIbPqbwbwZwRzxA1>n<rRnFkFlnxRkAzbnI",
"bk8nnnAAwwbbJwIRbIii<nk7bAxIx`HxHWxAxlxFhxRFlwxznb",
"bzbwbq$wqw<bInnFRRnr<r<,1b1<nwPzkkFj1kRFFRRxxAxkrw",
"wnAbw1nw7b^R^FNn/nnRIbzllMBkcnLllll1<78xFzzbnbc<bw",
"<bWnnFQA8FlFnNlFbkWkqwZRnklk<wbnRBxbAzCFF'HR^kzAAb",
"<kbzzbRbnlxklNNn<znA8<wIA8gklxAxbzArj^(CFFF8RQzz~n",
"wkklFNQQxkNNNFk1qq&w=qqqwqi<z8nIwki7nRAz51xxF)kzAz",
"wbFNdkzFk8MFkgxkkzwzjzrw:nv;xRnkAInxWnFRwbFRkxzni7",
"<5IIklnnFxknAgFFCg-8wqw7&&w<<iqtJzCNAA~I$z^zbwiJJw",
"gxbR_ngFw&555kn<rw<6r,rww-@<<&<wb8knAFx^FFA~nnbw~I",
"nbnn1xFk8wnbzxk1zw:rw-@g lkbn8RNxxEFQQFxQEFnzAnkng",
"AzAknAzFWzIxFz81HxMhhl ss1wbbz7qZinnRQFnEnxxnznnkw",
"zbAnnRzwwzwrxAeerw:kdkk1b<ibkkwAIqPbbRbPzb5A8bzlnF",
"i<knn8n1njkx8zrUzVlxkxnww-bn8A1bbbk8IlbKbwwbAIcnkz",
"rrnkbwn@<q3<30e==wbq%%%.=q$q:wzbbAxFWnN//RIIRLRRkx",
"r9w4@4IAzq7bi=u%,14@:<1188xzWSUWQQNFNEREIcJykAbnRx",
"nz8bzAzczqb<q6X=:=ow74&#3w1<<<1kwI<KRNERncnkkAWbIA",
"b8w<r8w@rbbAwwr7&t=%o#q&=wbbKEkglnnRnkzFxxbwbnzw8w",
"wwzzbFj8nFgAn18wrZwrbkl:w8ZxFxrzgxznnxFFFFbqiiq=iu",
"3wrwwb==w8nkk8b88kb:NxNAnxnlFxxxxxFFA^ngnbwwriyq=q",
"cIqwbk:kzz98xzr<@bb8wbnRAzkACARzzzMFx^nxnIwAkbznkn",
"Rwwnqqq&.+ewkiw=r<<wwngxAAnZbkcIwkbnnn~zbnAxWAzzbn",
"AzwRb1b5:1zF87q=4+wrw<q<<&1www,kb1Kkk1nkRkbRWAlR8n",
"nAx1nbkZwq<w7@A88zAxg<b=rbAFzwgFxkFnxFFxRbwbwkIZkI",
"zbw<bIAbiqiqi<wbAxknxxFAxCxFgzRQnARRnWRAkAIkgnRkNE",
"Ik1<<IxR8<<yqi8bIFAnczwzznzR^zxRRFRFRnAA1k~kkbnnkR",
"b<b8:=7z7bk88znRbndgk<wAnnzbIwkcbknInbInRknRInzAxF",
"Kbwiiq3.+wrw8knAznllAknFFNbnwznKRIFFkknRnknzkkAnnl"
};
