/* XPM */
static char *result[] = {
/* columns rows colors chars-per-pixel */
"50 50 181 2 ",
"   c #1D030B",
".  c #180402",
"X  c #1D1804",
"o  c #250B0E",
"O  c #28070E",
"+  c #241801",
"@  c #2E0F13",
"#  c #2F1112",
"$  c #331415",
"%  c #361519",
"&  c #3A171C",
"*  c #3C1A1C",
"=  c #33250F",
"-  c #2E2912",
";  c #352B14",
":  c #382113",
">  c #350F24",
",  c #3D1B21",
"<  c #312E23",
"1  c #3F3225",
"2  c #252627",
"3  c #4C0B00",
"4  c #490300",
"5  c #4C1000",
"6  c #431E15",
"7  c #411B1E",
"8  c #601C05",
"9  c #4C2816",
"0  c #56271C",
"q  c #43331A",
"w  c #682B0F",
"e  c #7A3819",
"r  c #421C22",
"t  c #4B2225",
"y  c #4D2429",
"u  c #472120",
"i  c #52272D",
"p  c #552A2D",
"a  c #552923",
"s  c #4C3623",
"d  c #4A3E28",
"f  c #583B27",
"g  c #5B2D32",
"h  c #673426",
"j  c #6B392A",
"k  c #703D2F",
"l  c #613136",
"z  c #64343A",
"x  c #6B373D",
"c  c #6C393F",
"v  c #713E3F",
"b  c #5D422E",
"n  c #43433B",
"m  c #5F4236",
"M  c #63432E",
"N  c #6A4532",
"B  c #64493D",
"V  c #764D3A",
"C  c #7A4A38",
"Z  c #6C5438",
"A  c #74563C",
"S  c #6E3B40",
"D  c #733E44",
"F  c #764146",
"G  c #7A4442",
"H  c #7B444A",
"J  c #754847",
"K  c #62564C",
"L  c #7E5345",
"P  c #725952",
"I  c #664557",
"U  c #77706B",
"Y  c #944F2F",
"T  c #8A583F",
"R  c #874A37",
"E  c #A65432",
"W  c #B83E75",
"Q  c #824B4A",
"!  c #87574E",
"~  c #965D47",
"^  c #854C51",
"/  c #8A4E55",
"(  c #8E5259",
")  c #8B5057",
"_  c #94565C",
"`  c #A35B51",
"'  c #896044",
"]  c #86645C",
"[  c #9B6A54",
"{  c #B1694A",
"}  c #A76655",
"|  c #B26756",
" . c #A67257",
".. c #9D5C63",
"X. c #897669",
"o. c #9B7969",
"O. c #817C72",
"+. c #9F7E7C",
"@. c #A16067",
"#. c #A5636A",
"$. c #AC676F",
"%. c #AD7B62",
"&. c #A57265",
"*. c #B07464",
"=. c #B26C74",
"-. c #BC737B",
";. c #B67077",
":. c #C57368",
">. c #D1746B",
",. c #DC7A6E",
"<. c #C1777F",
"1. c #978175",
"2. c #958379",
"3. c #AD8065",
"4. c #B78164",
"5. c #BC876F",
"6. c #B7856C",
"7. c #C08364",
"8. c #C48A6E",
"9. c #D58763",
"0. c #D69375",
"q. c #ED8F63",
"w. c #E99979",
"e. c #F4A27E",
"r. c #FBA37A",
"t. c #E2438C",
"y. c #DA6F8C",
"u. c #C47982",
"i. c #D36290",
"p. c #8E8781",
"a. c #968D87",
"s. c #A08D84",
"d. c #A39587",
"f. c #A89D96",
"g. c #A39B95",
"h. c #B0A39A",
"j. c #ABB1B4",
"k. c #B3B7B8",
"l. c #F49B8A",
"z. c #F19E86",
"x. c #CBA88C",
"c. c #DEA389",
"v. c #E3AC8C",
"b. c #FDA28E",
"n. c #F8B18C",
"m. c #F9AD99",
"M. c #EABB96",
"N. c #FCB392",
"B. c #FFBA95",
"V. c #FFBD9A",
"C. c #F4B398",
"Z. c #D7B7A7",
"A. c #C6BEBB",
"S. c #FFB9A4",
"D. c #F3B3BF",
"F. c #FFC197",
"G. c #FFDF93",
"H. c #FFE094",
"J. c #D3C0B6",
"K. c #FFCBA5",
"L. c #FDC6A9",
"P. c #FFD6AF",
"I. c #FED4BA",
"U. c #CABBC3",
"Y. c #C6CDCC",
"T. c #D1D6D8",
"R. c #FCD8C2",
"E. c #EED8D6",
"W. c #FFE1C5",
"Q. c #FEE5CB",
"!. c #FFEBCF",
"~. c #FFEED1",
"^. c #FAE6D7",
"/. c #FFF8DD",
"(. c #F8D3E5",
"). c #ECEDEB",
"_. c #FFF0E8",
"`. c #FFFFF6",
"'. c #FEFEFF",
"]. c #FFF7F5",
"[. c None",
/* pixels */
"[.[.[.[.[.[.[.[.[.[.[.[.[.[.[.[.[.[.[.[.[.[.[.[.[.[.[.[.[.[.[.[.[.[.[.[.[.[.[.[.[.[.[.[.[.[.[.[.[.[.",
"[.[.[.[.[.[.[.[.[.[.[.[.[.[.[.[.[.[.[.[.[.[.[.[.[.[.[.[.[.[.[.[.[.[.[.[.[.[.[.[.[.[.[.[.[.[.[.[.[.[.",
"[.[.[.[.[.[.[.[.[.[.[.[.[.[.[.[.[.[.[.[.[.[.[.[.[.[.[.[.[.[.[.[.[.[.[.[.[.[.[.[.[.[.[.[.[.[.[.[.[.[.",
"[.[.[.[.[.[.[.[.[.[.[.[.[.[.[.[.[.[.[.[.[.[.[.[.[.[.[.[.[.[.[.[.[.[.[.[.[.[.[.[.[.[.[.[.[.[.[.[.[.[.",
"[.[.[.[.[.[.[.[.[.[.[.[.[.[.[.[.[.[.[.[.[.[.[.[.[.[.[.[.[.[.[.[.[.[.[.[.[.[.[.[.[.[.[.[.[.[.[.[.[.[.",
"[.[.[.[.[.[.[.[.[.[.[.[.[.[.[.[.[.[.[.[.[.[.[.[.[.[.[.[.[.[.[.[.[.[.[.[.[.[.[.[.[.[.[.[.[.[.[.[.[.[.",
"[.[.[.[.[.[.[.[.[.[.[.[.[.[.[.[.[.[.[.[.[.[.[.[.[.[.[.[.[.[.[.G.[.[.[.[.[.[.[.[.[.[.[.[.[.[.[.[.[.[.",
"[.[.[.[.[.[.[.[.[.[.[.[.[.[.[.[.[.[.[.[.[.[.[.[.[.[.[.[.[.[.[.[.[.[.[.[.[.[.[.[.[.[.[.[.[.[.[.[.[.[.",
"[.[.[.[.[.[.[.[.[.[.[.[.[.[.[.[.[.[.[.[.[.[.[.[.[.[.[.[.[.[.[.[.[.[.[.[.[.[.[.[.[.[.[.[.[.[.[.[.[.[.",
"[.[.[.[.[.[.[.[.[.[.[.[.[.[.[.[.[.[.[.[.[.[.[.[.[.[.[.[.[.[.[.[.[.[.[.[.[.[.[.[.[.[.[.[.[.[.[.[.[.[.",
"[.[.[.[.[.[.[.[.[.[.[.[.[.[.[.[.[.[.[.[.[.[.[.[.[.[.[.[.[.[.[.[.[.[.[.[.[.[.[.[.[.[.[.[.[.[.[.[.[.[.",
"[.[.[.[.[.[.[.[.[.[.[.[.[.[.[.[.[.[.[.[.[.[.[.[.[.[.[.[.[.[.[.[.[.[.[.[.[.[.[.[.[.[.[.[.[.[.[.[.[.[.",
"[.[.[.[.[.[.[.[.[.[.[.[.[.[.[.[.[.[.[.. r g & $ $ i D g r [.[.[.[.[.[.[.[.[.[.[.[.[.[.[.[.[.[.[.[.[.",
"[.[.[.[.[.[.[.[.[.[.[.[.[.[.[.[.[.[.% c l l H i x D g x F x [.[.[.[.[.[.[.[.[.[.[.[.[.[.[.[.[.[.[.[.",
"[.[.[.[.[.[.[.[.[.[.[.[.[.[.[.[.[.$ H c i D H H g D D z g H c [.[.[.[.[.[.[.[.[.[.[.[.[.[.[.[.[.[.[.",
"[.[.[.[.[.[.[.[.[.[.[.[.[.[.[.[.y Q F 7 S H H H z S H H H p F c [.[.[.[.[.[.[.[.[.[.[.[.[.[.[.[.[.[.",
"[.[.[.[.[.[.[.[.[.[.[.[.[.[.[.[._ ..i g F F J F H y S H H #.x D x [.[.[.[.[.[.[.[.[.[.[.[.[.[.[.[.[.",
"[.[.[.[.[.[.G.[.[.[.[.[.[.[.[.[.z z r z ^ #.D @.^ t g @.=.-.-.g / ) [.[.[.[.[.[.[.[.[.[.[.[.[.[.[.[.",
"[.[.[.[.[.[.H.[.[.[.[.[.[.[.[.z #.y y z #.#.( ;.l r > _ u.=.u.D H @.y [.[.[.[.[.[.[.[.[.[.[.[.[.[.[.",
"[.[.[.[.[.H.H.H.[.[.[.[.[.[.[.S ..r , F -.F ) ^ & 9 j y ..u.-.u.i #.) [.[.[.[.[.[.[.[.[.[.[.[.[.[.[.",
"[.[.[.[.[.[.H.[.[.[.[.[.[.[.[.p c t o F $.g c z # 9. .. z ( / / % D S [.[.[.[.[.[.[.[.[.[.[.[.[.[.[.",
"[.[.[.[.[.[.H.[.[.[.[.[.[.[.[.% p r o S _ y J   { K.B.R & H H D 9 t y [.[.[.[.[.[.[.[.[.[.[.[.[.[.[.",
"[.[.[.[.[.[.[.[.[.[.[.[.[.[.[.* i * o t H , z * r.5. .5.h r S o T * 7 [.[.[.[.[.G.[.[.[.[.[.[.[.[.[.",
"[.[.[.[.[.[.[.[.[.[.[.[.[.[.[.$ * # 9 t ^ , p q.[ 2 I O b.k 0 +.> # $ [.[.[.[.[.H.[.[.[.[.[.[.[.[.[.",
"[.[.[.[.[.[.[.[.[.[.[.[.[.[.[.[.o Q 5., / , j F.C A.'.i.b.n.w.].W o [.[.[.[.G.G.G.H.[.[.[.[.[.[.[.[.",
"[.[.[.[.[.[.[.[.[.[.[.[.[.[.[.[.[.c.%.r z 6 r.V.7.'.(.t.m.L.F._.y.5 [.[.[.[.[.[.H.[.[.[.[.[.[.[.[.[.",
"[.[.[.[.[.[.[.[.[.[.[.[.[.[.[.[.[.[.8.a i $ r.N.R.E.'.D.R.~.Q.~.M.3 [.[.[.[.[.[.H.[.[.[.[.[.[.[.[.[.",
"[.[.[.[.[.[.[.[.[.[.[.[.[.[.[.[.[.[.[.[.o ` B.B.P.R.C.L.!.R.!./.e.3 [.[.[.[.[.[.[.[.[.[.[.[.[.[.[.[.",
"[.[.[.[.[.[.[.[.[.[.[.[.[.[.[.[.[.d d [.[.b :.w.L.I.Q.b.l./.R.C.e [.[.[.[.[.[.[.[.[.[.[.[.[.[.[.[.[.",
"[.[.[.[.[.[.[.[.[.[.[.[.[.[.[.[.+ ^.^.} Z f n L >.V.S.Z.x.v.Y 3 [.[.[.[.[.[.[.[.[.[.[.[.[.[.[.[.[.[.",
"[.[.[.[.[.[.[.[.[.[.[.[.[.[.[.[.[.X.I.F.F.b.1.p.( J G P 9 4 [.[.[.[.[.[.[.[.[.[.[.[.[.[.[.[.[.[.[.[.",
"[.[.[.[.[.[.[.[.[.[.[.[.[.[.[.[.[.[.' F.n.P.4.X.J.Y.Y.).s.8 [.[.[.[.[.[.[.[.[.[.[.[.[.[.[.[.[.[.[.[.",
"[.[.[.[.[.[.[.[.[.[.[.[.[.[.[.[.[.[.[.; %.n. .d.^.'.'.'.Z.Y 4.h [.[.[.[.[.[.[.[.[.[.[.[.[.[.[.[.[.[.",
"[.[.[.[.[.[.[.[.[.[.[.[.[.[.[.[.[.[.[.[.[.X K g.2.a.j.g.2.A !.`.w [.[.[.[.[.[.[.[.[.[.[.[.[.[.[.[.[.",
"[.[.[.[.[.[.[.[.[.[.[.[.[.[.[.[.[.[.[.[.[.[.m *.6.6.4.} Q f E ~ [.[.[.[.[.[.[.[.[.[.[.[.[.[.[.[.[.[.",
"[.[.[.[.[.[.[.[.[.[.[.[.[.[.[.[.[.[.[.[.[.[.K o.1.1.+.X.] = [.[.[.[.[.[.[.[.[.[.[.[.[.[.[.[.[.[.[.[.",
"[.[.[.[.[.[.[.[.[.[.[.[.[.[.[.[.[.[.[.[.[.[.U f.k.T.J.h.g.- [.[.[.[.[.[.[.[.[.[.[.[.[.[.[.[.[.[.[.[.",
"[.[.[.[.[.[.[.[.[.[.[.[.[.[.[.[.[.[.[.[.[.[.B &.o.1 < J ! - [.[.[.[.[.[.[.[.[.[.[.[.[.[.[.[.[.[.[.[.",
"[.[.[.[.[.[.[.[.[.[.[.[.[.[.[.[.[.[.[.[.[.[.: 0.K.q [.| ,.- [.[.[.[.[.[.[.[.[.[.[.[.[.[.[.[.[.[.[.[.",
"[.[.[.[.[.[.[.[.[.[.[.[.[.[.[.[.[.[.[.[.[.[.[.~ V [.C >.d [.[.[.[.[.[.[.[.[.[.[.[.[.[.[.[.[.[.[.[.[.",
"[.[.[.[.[.[.[.[.[.[.[.[.[.[.[.[.[.[.[.[.[.[.[.} N [.V M [.[.[.[.[.[.[.[.[.[.[.[.[.[.[.[.[.[.[.[.[.[.",
"[.[.[.[.[.[.[.[.[.[.[.[.[.[.[.[.[.[.[.[.[.[.[.N s [.[.[.[.[.[.[.[.[.[.[.[.[.[.[.[.[.[.[.[.[.[.[.[.[.",
"[.[.[.[.[.[.[.[.[.[.[.[.[.[.[.[.[.[.[.[.[.[.[.[.[.[.[.[.[.[.[.[.[.[.[.[.[.[.[.[.[.[.[.[.[.[.[.[.[.[.",
"[.[.[.[.[.[.[.[.[.[.[.[.[.[.[.[.[.[.[.[.[.[.[.[.[.[.[.[.[.[.[.[.[.[.[.[.[.[.[.[.[.[.[.[.[.[.[.[.[.[.",
"[.[.[.[.[.[.[.[.[.[.[.[.[.[.[.[.[.[.[.[.[.[.[.[.[.[.[.[.[.[.[.[.[.[.[.[.[.[.[.[.[.[.[.[.[.[.[.[.[.[.",
"[.[.[.[.[.[.[.[.[.[.[.[.[.[.[.[.[.[.[.[.[.[.[.[.[.[.[.[.[.[.[.[.[.[.[.[.[.[.[.[.[.[.[.[.[.[.[.[.[.[.",
"[.[.[.[.[.[.[.[.[.[.[.[.[.[.[.[.[.[.[.[.[.[.[.[.[.[.[.[.[.[.[.[.[.[.[.[.[.[.[.[.[.[.[.[.[.[.[.[.[.[.",
"[.[.[.[.[.[.[.[.[.[.[.[.[.[.[.[.[.[.[.[.[.[.[.[.[.[.[.[.[.[.[.[.[.[.[.[.[.[.[.[.[.[.[.[.[.[.[.[.[.[.",
"[.[.[.[.[.[.[.[.[.[.[.[.[.[.[.[.[.[.[.[.[.[.[.[.[.[.[.[.[.[.[.[.[.[.[.[.[.[.[.[.[.[.[.[.[.[.[.[.[.[.",
"[.[.[.[.[.[.[.[.[.[.[.[.[.[.[.[.[.[.[.[.[.[.[.[.[.[.[.[.[.[.[.[.[.[.[.[.[.[.[.[.[.[.[.[.[.[.[.[.[.[."
};
