/* XPM */
static char *result[] = {
/* columns rows colors chars-per-pixel */
"50 50 43 1 ",
"  c #010101",
". c #070508",
"X c #09060A",
"o c #0B0A0D",
"O c #0F0C10",
"+ c #110E13",
"@ c #141115",
"# c #171318",
"$ c #1A161B",
"% c #1C191E",
"& c #1E1B20",
"* c #221E24",
"= c #242126",
"- c #262328",
"; c #2A262B",
": c #2D292E",
"> c #2E2A30",
", c #322E34",
"< c #343136",
"1 c #373239",
"2 c #3A363C",
"3 c #3D393F",
"4 c #3F3B41",
"5 c #413D43",
"6 c #454147",
"7 c #464349",
"8 c #49454B",
"9 c #4C484E",
"0 c #4F4B51",
"q c #524E54",
"w c #545056",
"e c #575359",
"r c #5A555C",
"t c #5D585F",
"y c #5F5B61",
"u c #625D64",
"i c #646066",
"p c #666268",
"a c #69656B",
"s c #6D696F",
"d c #6F6B71",
"f c #726E74",
"g c #79747B",
/* pixels */
"  +.+%***:#%oo.*;*#%+%%*;%%&&+$*:%%@X #  +#*%+o   ",
" *7;5q080086-95:twe0,8e98q0525qq83553;#o5r989q5,# ",
" 2uuapyytrir5qt,uuywdusfauuu55au8i39r= 6arureuu4O ",
" -spqqrrrwe8489:#802wrriqyerqryq5<3t: X26=90965,+ ",
".#quetuqtwq95578%288qwuueae>7wq49<33.$*53%:99,,;o ",
" 46qrqut028w6#=:%48puq869t7#,831e6% :r,78952758-X ",
".0s55qyt9397<63  36yrqqrtq7>5+,98@ #pu965q,<q66-X ",
".8f59wt5tr3299t8 ;q0qw947,9# +**.  6t7wt31,:48:,+ ",
".9ir053<87227<5a1 :0r83-252 @err**%.<6wr5*>,,>*1. ",
".6ie86<;8<q0289qi%oy67w71:.@89ww=,= +q8qt*15t;%,  ",
".6aw>=65w80898rtte.:wi9w; @rwq0359:. :qr1>9re>%>o ",
".<733;370070e7;;.;@o78O  oq<6tw5tr3; @tr#8ut92=;@ ",
" :6661570358,.  %.    $6,<w>8r0wq5r7 :y73w9009,;O ",
" <t77www7>*& =88it7@ %wsiuwwq58yq576.:77uyq887,,+ ",
"O>@28uew6: .,;95wpfi%.:reww8;1erwr8e%  #<qyt89:;  ",
" O O@05,o o,85*:9triq Xqqer5;uw33w98@o#  -8tw3    ",
" .   #@.#252*0#;w5rty: *4te<8w385=3- ;<%o X8r5.   ",
".<98<o  2r041&2;4qe87w =4q87r,656-q@@4@<9:. *5.   ",
" 2r3w4# -7,>5112267<w9@-75e6ew28856 %t1%;9-@ @ @,.",
"X6r=218o&y2+*4252623w6.=w355%32qr5@;86w&o8pw%  &= ",
" 28*555$ >2* ;>,131411 >y54>%:,2;o.284q1%32<4. ,. ",
" #<;51.O .-+o-**:<125< o755*=;+$@ +24794;<:,:o O  ",
" XX#. o: o$O*&%*=#@%##  +**&>*#X  =>5**3-O@o@.    ",
"       .    .         .                o.         ",
"                                                  ",
"=-@.#:=#*@+;=*@:* .@@#+o    #&+*-%%;;&;:=-;,=:,=<-",
":r%$2<5qwewqyyt0@;qq608-. .>51:%985we9wwww44w98qrr",
"7p=@84,rtuut0tg2 ear0wy2   <04>4rtetupiup9$3puyerw",
"i8.@5y870w64<25$.q92wr4=O  .=q77at8wryq845*6tqq883",
"w- ,2qai<*q065: *t8;0e-##  @#**2i5,5,666319ru6155w",
"0= ,08qp6:5968@X1w7168>-+  -ua7:=3,15458636eq055q8",
"8@ +988<r1*8,6o$wrtqq2&:.  5prp8=X#%55:44<1536636>",
"7=7X=w=:5w35q8#@e8qrq1+&. .7u0055% .33<#:,21,:,:,4",
"5;7,.:;36882wt=.157w8&o+  .7p0,5061  @5##-2:*;1412",
"::=0 X25,wt5673 %05q8#o    #%%-406r:o$313<=2*:5126",
"22<% #56328698* %7015%+    X$ *;,509:;w37,-1:*:148",
"5<5% @<1<78-;9oo53=;7;o    5y2-XO<3592:;**,,-+:,44",
"<18* o<5:;986, *r;@>5* Oo  @25>,.@%$,82,4*$,,*$>q2",
",24-o O3:=40w&682O*2q.X4* .,>>80;.  .3uo5,+55--:44",
"13==&@ o*<38%o0-758r2 ;,X .,1$2;,>*,o@1+*2>5>:>>:<",
"5,;,#2; .12= 6*=:7y< %7&  -155,;>:&<2= ++.*&*37+;2",
"7,57;7y5% = @6:<71- #<;*o .1%24w1$,2-r4.   .=##+@;",
"2422210ep@. -:791*.o-$&$@  =4 o2>O&*#,q-:98@@    -",
"*,5>,=>>e4. =-165,  @2=%X  #q2 . &4&##<;%3q,#.@%. ",
" -3242.>16o :#:2,8% #-%&o  =272. O8&+ **@,,>;o382X",
" .-&-q*-=8o.@@=><4-  X+$o  #-=4@  .*8+****;;=%%@;&",
"# XO%,%%e<  .$-:$$. +XX+   @*$*#  . ;+$*$Xo**:%#$$",
" O  #  o,    Oo@+.  O       @ $+  .   .+#X X.@.o@o",
"                               .                  ",
"                                                  "
};
