/* XPM */
static char *result[] = {
/* columns rows colors chars-per-pixel */
"50 50 34 1 ",
"  c #573A27",
". c #573928",
"X c #573929",
"o c #563A28",
"O c #573A28",
"+ c #563B28",
"@ c #573B28",
"# c #573A29",
"$ c #573B29",
"% c #583928",
"& c #583929",
"* c #583A28",
"= c #583A29",
"- c #583B29",
"; c #593B29",
": c #5A3C29",
"> c #5B3D2A",
", c #5C3D2A",
"< c #5C3E2B",
"1 c #5D3E2B",
"2 c #5E3E2B",
"3 c #5E3F2B",
"4 c #5F3F2C",
"5 c #5F402C",
"6 c #60402C",
"7 c #62412D",
"8 c #62422D",
"9 c #64432E",
"0 c #65432E",
"q c #65442F",
"w c #66442F",
"e c #67442F",
"r c #67452F",
"t c None",
/* pixels */
"tttttttttttttttttttttttttttttttttttttttttttttttttt",
"tttttttttttttttttttttttttttttttttttttttttttttttttt",
"tttttttttttttttttttttttttttttttttttttttttttttttttt",
"tttttttttttttttttttttttttttttttttttttttttttttttttt",
"tttttttttttttttttttttttttttttttttttttttttttttttttt",
"tttttttttttttttttttttttttttttttttttttttttttttttttt",
"tttttttttttttttttttttttttttttttttttttttttttttttttt",
"tttttttttttttttttttttttttttttttttttttttttttttttttt",
"tttttttttttttttttttttttttttttttttttttttttttttttttt",
"tttttttttttttttttttttttttttttttttttttttttttttttttt",
"tttttttttttttttttttttttttttttttttttttttttttttttttt",
"tttttttttttttttttttttttttttttttttttttttttttttttttt",
"tttttttttttttttttttttttttttttttttttttttttttttttttt",
"tttttttttttttttttttttttttttttttttttttttttttttttttt",
"tttttttttttttttttttttttttttttttttttttttttttttttttt",
"tttttttttttttttttttttttttttttttttttttttttttttttttt",
"tttttttttttttttttttttttttttttttttttttttttttttttttt",
"tttttttttttttttttttttttttttttttttttttttttttttttttt",
"tttttttttttttttttttttttttttttttttttttttttttttttttt",
"tttttttttttttttttttttttttttttttttttttttttttttttttt",
"tttttttttttttttttttttttttttttttttttttttttttttttttt",
"tttttttttttttttttttttttttttttttttttttttttttttttttt",
"tttttttttttttttttttttttttttttttttttttttttttttttttt",
"tttttttttttttttttttttttttttttttttt2ttttttttttttttt",
"ttttttttttttttttttttttttttttttttt>%ttttttttttttttt",
"ttttttttttttttttttttttttttttotttOXtttttttttttttttt",
"ttttttttttttttttttttttttttttOtttOttttttttttttttttt",
"tttttttttttttttttttttttttttOOttOtttttttttttttttttt",
"ttttttttttttttttttttttttttttOt%Ott ttttttttttttttt",
"tttttttttttttttttttttttttttt*66tt69otttttttttttttt",
"tttttttttttttttttttttttttttttO2%5Otttttttttttttttt",
"tttttttttttttttttttttttttttttt2>@ttttttttttttttttt",
"tttttttttttttttttttttttttttttO>;tOOttttttttttttttt",
"ttttttttttttttttttttttttttttOwO& ttttttttttttttttt",
"ttttttttttttttttttttttttttt,Ottttttttttttttttttttt",
"ttttttttttttttttttttttttt@OOtttttttttttttttttttttt",
"tttttttttttttttt#Ottttt$,O<ttttttttttttttttttttttt",
"tttttttttttttttOOtt+t;87331e*ttttttttttttttttttttt",
"ttttttttttttttO.tOOq4,ottttttttttttttttttttttttttt",
"ttttttttttttto3O:9OOtttttttttttttttttttttttttttttt",
"tttttttttttto3>0# tttttttttttttttttttttttttttttttt",
"ttttttttt O73>tttttttttttttttttttttttttttttttttttt",
"ttttttt=Oq-OOttttttttttttttttttttttttttttttttttttt",
"tttttt.rOO+ttttttttttttttttttttttttttttttttttttttt",
"ttttttt+tttttttttttttttttttttttttttttttttttttttttt",
"tttttttttttttttttttttttttttttttttttttttttttttttttt",
"tttttttttttttttttttttttttttttttttttttttttttttttttt",
"tttttttttttttttttttttttttttttttttttttttttttttttttt",
"tttttttttttttttttttttttttttttttttttttttttttttttttt",
"tttttttttttttttttttttttttttttttttttttttttttttttttt"
};
