/* XPM */
static char *result[] = {
/* columns rows colors chars-per-pixel */
"50 50 47 1 ",
"  c #261412",
". c #291513",
"X c #2B1816",
"o c #2E1C1A",
"O c #32201F",
"+ c #332423",
"@ c #342826",
"# c #362B2A",
"$ c #382A28",
"% c #37302F",
"& c #3C312F",
"* c #323232",
"= c #3B3534",
"- c #3F3B3B",
"; c #423B3B",
": c #493A38",
"> c #444444",
", c #4E4847",
"< c #4C4C4C",
"1 c #504746",
"2 c #544847",
"3 c #524F4F",
"4 c #545454",
"5 c #5C5554",
"6 c #5C5C5C",
"7 c #635B5B",
"8 c #646363",
"9 c #6C6463",
"0 c #6C6C6C",
"q c #766E6D",
"w c #737373",
"e c #7A7473",
"r c #7B7B7B",
"t c #807F7F",
"y c #838383",
"u c #8B8787",
"i c #8A8887",
"p c #8C8C8C",
"a c #949494",
"s c #9A9797",
"d c #9B9B9B",
"f c #A09F9F",
"g c #A3A3A3",
"h c #ABABAB",
"j c gray69",
"k c #BBBBBB",
"l c #C5C5C5",
/* pixels */
".X......     .....      ... .. ...................",
".......... .   .... ....  ............... ........",
"X.X...  .      ..     ..   ................ ......",
"...... .         ... ....  ... ......... .........",
"X.....   ..    . .. ............................XX",
"X.......   ............... .....  ................",
"...............X.......X......... ................",
"...  ........... .....X.................XX.......X",
"............    .   .. .... ....    . .......X.X..",
"..................  ..     . .          ..........",
"................     ..     .. .        ....X...X.",
"........ ..... .              ...............X..X.",
"....  ....    ....  ....  .. .. . ................",
"..........     ..     .. .....  ..  ....... X.....",
"... ...      ...          ...X...XX...X.XX........",
"...... .... .  . ..       ...  .......X......X..X.",
"..........      .    ......wweeq88q:  X.X.....X.. ",
"....o...  . .    .  X..oo5ukllkhghkgps9oX  .. ... ",
"....  ..     .   . ..Opsuaaphhfaypdhjjk2.X. ......",
" ......... .....   .1uhaptrphgsyrpdfghh9..X.. ....",
"....  .  ........ .5fjhgprtsfappiyadptts9  ... .. ",
"... .... . ..ooo..Ortgjft80ypdautwwtwwryu3.  .. ..",
".  . ............5q9wuurw88wpdp84880wrrpe81o......",
".  .........17769t350ww00080rut0868wwwwyw8w;... ..",
"... .  .   7hhadt66668008886008646888ww0888#..    ",
" ..   ..@,sdfprw088ww00rw66064<46w0800646886X.. . ",
" .....O1dhdpptr6880tpyaaw60w6<<48w088<446876o.....",
"  ...O8fgaprrw0080rryafapttt04><8086<<<>>342o.....",
" ....3rtayrrrr06468wufhadarw8>*>4<><<<<>>,4@.X....",
" ....30tww0r0844<<48ytapsy04<<>---=*=-==- .. .....",
"  ...<68666446444<<4wrrtw64><=* ....X.X  .X.. ... ",
".. .oO-3-><44>+@@-<<60ww64>>*   .....X.X.X........",
". ........XXX..   $356646<;X. X....XXX......... ..",
"................  .$;;%&;o....  . ............... ",
". ..... .   ..       .. . ..  ... .......... .. ..",
"  ... . ....   X    ....  .. . ...  .......... . .",
"  . . .                        ....X...XX.........",
" .    ..                  . ...X.X...XX...........",
".. . ..                          . .X...... ......",
".                      .   ...  ........... ....  ",
"  ......X..      .    ..  . ...............  .   .",
"     .        .. .  . ................. .. .      ",
"    . . .   .  .  .  ....  ..........X...... ... .",
"X  .                 ......... . ...... ..........",
"   o  .  .  .                  .. ... ...  XX..X..",
"... . .   . . .  ....    ....  .. ......X. .  ....",
" .  . X     .  ......................X.....  .. ..",
".   . .         .... . .....X........... .X. .....",
". .          ..... .   ...... ....................",
"..  .         ..... ........ .....X..............."
};
