/* XPM */
static char *result[] = {
/* columns rows colors chars-per-pixel */
"50 50 181 2 ",
"   c #1F0704",
".  c #1D030B",
"X  c #1C0C0A",
"o  c #1C110D",
"O  c #28070E",
"+  c #250B0D",
"@  c #3F0E07",
"#  c #22120E",
"$  c #26180B",
"%  c #3F1107",
"&  c #39150D",
"*  c #2A0D12",
"=  c #261412",
"-  c #291513",
";  c #2C1915",
":  c #321515",
">  c #311C17",
",  c #3B1D14",
"<  c #351519",
"1  c #3A171C",
"2  c #341A19",
"3  c #3C1A1C",
"4  c #2E2518",
"5  c #312313",
"6  c #372916",
"7  c #37221B",
"8  c #3A251D",
"9  c #350F24",
"0  c #3E1C21",
"q  c #252627",
"w  c #3C2E22",
"e  c #440503",
"r  c #5E1C05",
"t  c #431E15",
"y  c #512819",
"u  c #652A0F",
"i  c #683018",
"p  c #431D22",
"a  c #462224",
"s  c #4B2125",
"d  c #412D22",
"f  c #4D2429",
"g  c #552923",
"h  c #52272D",
"j  c #55292D",
"k  c #453222",
"l  c #493725",
"z  c #563A29",
"x  c #5A2D32",
"c  c #653326",
"v  c #683A2B",
"b  c #703D2F",
"n  c #613136",
"m  c #64343A",
"M  c #6B373D",
"N  c #6B393E",
"B  c #713E3F",
"V  c #43433B",
"C  c #5D4532",
"Z  c #63432E",
"A  c #6B4734",
"S  c #64493D",
"D  c #794B38",
"F  c #695238",
"G  c #73553C",
"H  c #6D3B40",
"J  c #733E44",
"K  c #764146",
"L  c #7A4442",
"P  c #724E45",
"I  c #774248",
"U  c #7B444A",
"Y  c #62564C",
"T  c #7A5843",
"R  c #664557",
"E  c #715852",
"W  c #776041",
"Q  c #77706B",
"!  c #8C482C",
"~  c #914F2F",
"^  c #874A37",
"/  c #89573E",
"(  c #A65432",
")  c #B53D73",
"_  c #824B4A",
"`  c #87574E",
"'  c #965D47",
"]  c #854C51",
"[  c #8A4E55",
"{  c #8E5259",
"}  c #94565C",
"|  c #A35B51",
" . c #8C724E",
".. c #86645C",
"X. c #B1694A",
"o. c #A76655",
"O. c #B26756",
"+. c #A57257",
"@. c #9D5C63",
"#. c #8E6F67",
"$. c #877969",
"%. c #9B7969",
"&. c #9A7E77",
"*. c #A16067",
"=. c #A5626A",
"-. c #AC676F",
";. c #A87762",
":. c #AC7562",
">. c #B26C74",
",. c #B67077",
"<. c #BC737B",
"1. c #CA7369",
"2. c #D7776D",
"3. c #C1777F",
"4. c #A2875C",
"5. c #958278",
"6. c #B78164",
"7. c #B6846C",
"8. c #BC886E",
"9. c #B79C68",
"0. c #B89D6A",
"q. c #BDA16C",
"w. c #C08364",
"e. c #C48A6E",
"r. c #D68D6C",
"t. c #ED8F63",
"y. c #E89979",
"u. c #C2A56E",
"i. c #CAAE73",
"p. c #D4B67A",
"a. c #FBA37A",
"s. c #E2438C",
"d. c #DA6F8C",
"f. c #C47982",
"g. c #D36290",
"h. c #8E8781",
"j. c #968D87",
"k. c #A08D84",
"l. c #A39587",
"z. c #A69C95",
"x. c #AC9F96",
"c. c #ABB1B4",
"v. c #B2B6B7",
"b. c #F49B8A",
"n. c #C8A58A",
"m. c #DEA389",
"M. c #E3AC8C",
"N. c #FDA28E",
"B. c #F8B18C",
"V. c #F9AD99",
"C. c #FCB392",
"Z. c #FEB994",
"A. c #F4B398",
"S. c #FEBD9A",
"D. c #D6B7A6",
"F. c #C6BEBB",
"G. c #FFB9A4",
"H. c #F3B3BF",
"J. c #E6C784",
"K. c #FFC192",
"L. c #D3C0B6",
"P. c #FFCBA5",
"I. c #FDC6A9",
"U. c #FAD1AB",
"Y. c #FED4BA",
"T. c #CABBC3",
"R. c #C6CDCC",
"E. c #D1D6D8",
"W. c #FCD8C2",
"Q. c #EED8D6",
"!. c #FFE1C5",
"~. c #FDE5CB",
"^. c #FDEBCE",
"/. c #FBE8D6",
"(. c #FAF2D8",
"). c #F8D3E5",
"_. c #EBECEA",
"`. c #FBECE4",
"'. c #FFF7F5",
"]. c #FFFFF6",
"[. c #FEFEFF",
/* pixels */
"- ; - - - - - - = = = = = - - - = = = - = = = = - = - = - = = - - - - - - - - - - - - - - - - - - - ",
"- - = = - - - - = - - - - = = - - - - = - - - - = - - - - - - - - - - - - - - - - = = - - - - - - - ",
"; ; ; ; - - * = = = = = = - = - = = = = = - - - = = = - = - - - - - - = - - - - - - - - - - - - - - ",
"- - = = - - = - = = = = = * = - = - - - = - = - = - = - - - = - - - - - - - - ; = - - - - - - - - - ",
"- - - - - - - - = - = = = = = = = ; - - - - - - - - - - - - - - - ; - - = - - - - - - - - - - - ; - ",
"; - - - - - = - - = - - - - = - - - - - - - - = - - = - - - - - - - - - = - - : - - - ; - - ; - ; - ",
"- - - - - - - - - - - - - - ; - - - - - ; ; - - - - - - - = - 2 - 4.8 = = - - - - - - - - ; - - - - ",
"- ; - = = - - - * - - - - - ; - - - - - - - - - = = - = - = - - - 8 : = - - - ; ; - - - - - - - - ; ",
"- - - - - ; - - = - - * - = = = - = = = = - - - - - - = - - - - = # = = - = - - - - - - - ; - - - - ",
"; - = = - - - - = - ; ; - - - - - - = = = - = = - = - - - = = * = = = = = = = - - - - - - - ; - - - ",
"- - = - = - - - - - - = - = - = - = = * = - = = - = = = - - ; - - - = = = = = = = - - - ; - - - ; - ",
"- - - - - - - - - - - = ; - = - = = = = = - # X = = = ; - = = - - - = - - - - - = - - - = ; - - ; - ",
"- - - - = = ; - - - = = = = = - - - - = * X a x 1 * < h J f 9 ; - = = - - - - - - = = - - - ; - - - ",
"- ; * - - - - - - - = = = = = ; - = = = < J n n U j m H x H J H : - - = - = - - - ; - = - = - - - - ",
"- - = - = - - - ; - = = = - - = = = # : J H p J U U x U J n x U M : = - - - ; - ; : ; - - - - - - - ",
"- - - - - - - - - = - = = - = - = = a _ J p J _ U U m H U U U h I N : - - # - - ; - - - - ; - - ; - ",
"- - - - ; - ; ;  .w - = = = = = - X @.{ h x K I U K U f H I U *.M J M : - - - - - - - - - ; - - = * ",
"- - - - - - - - i.> = - = = = = = o m m p n _ =.J *.] s x *.>.3.<.x [ { * = - = - - - - - - ; - - = ",
"- - - - - - w T n. .z = - - * = o n *.f f m -.=.{ ,.n s < } f.>.3.J U @.0 - ; - - = - = - = - - ; ; ",
"= - - - ; - z 0.J.q.W - ; - - - = H @.p 0 I <.J [ ] 1 a v f *.3.<.f.j *.[ # - - ; = - - - - - - - = ",
"- - - - = = - ; i.$ - - - ; = - o j H s + J -.x B x * r.o.. m { [ [ < L N - = - = - - - - - = = = - ",
"- - - - ; = ; ; q.8 - ; = ; ; ; = < j p * H } f L O X.P.Z.^ 1 I _ J s s f : - - ; > 8 - - - - - - - ",
"- - = = = = = ; = ; - - - ; ; - = 1 f 0 # f U 3 n 3 a.8.4.6.c p M * / 1 t = - ; - C u.: ; - - $ - - ",
"- = = - - - - - = = - - - - - - = : 0 * t f ] 0 g t.o.q R O N.b g 5.9 * : = - ; - z 9.= ; - - - - - ",
"- = = = - = = = = = = - - - - - - = X / 7.0 [ 0 b K.D T.[.g.b.B.y.'.)   = = ; - 4.J.J.p.d - - = - = ",
"= - - - = = - = = - - - : - - - ; - X m.:.0 m t a.S.w.[.).s.V.P.S.`.d.% = = - - 7 S q.w 9 - - = - - ",
"= - - - - - - - - - - - - - - - - - - c e.g h : a.C.!.Q.].H.W.~.~.^.J.% - - - - - C i.- 4 - = ; - - ",
"= = - - - - ; - - $ - = - - - - = = - - , 3 * | Z.Z.I.~.A.I.^.W.~.(.N.e = ; ; - - 8 C - ; - - - - - ",
"= - = - - - - - - = - : - - - - = = = k l - o C 1.y.G.Y.^.b.b.(.W.A.i - - - - - - = - = - ; = = - = ",
"= - - - = - - ; - = - - - = - - = - o /.(.X.F z V T 2.G.G.D.n.M.! @ - - ; - ; - - - ; - - - - - - = ",
"= = - ; = - - - = - - - - = - - - - $ $.Y.Z.P.b.&.h...D L E y e = = ; - - - - - = - ; - - = = = = = ",
"- - - - ; ; -  .C * - = = - - # = - # o ` S.B.U.:.$.L.R.R._.k.r & = - - - - - ; - - - - = ; = = ; ; ",
"- - - - = - - w - * - - = - - = = = = - - 6 ;.B.+.l.^.[.].[.D.~ 6.c , - - ; - - ; - - - - - - - - - ",
"- = - - - - - - - - - - - - = = ; - - - - # $ $ Y z.5.j.c.z.Q T ^.].u - - ; - - - - - - - = - - - = ",
"= - - - - - - = - - = = - - = = = = = = = - = ; m :.7.7.6.o._ z ( ' , = - - - - - - * - = - - - - - ",
"= = = - - = - = - = - - = - = - - = = = - = ; - Y %.5.5.5.#...5 # = - = - - - - - - - - - - = - - = ",
"= - - - = = - = = = = = = = = = = = - = # = = = Q z.v.E.F.x.l.4 = - - - ; - - ; ; ; - - - - - - = - ",
"- = = = = = - - = = = - = = = = * = = = = = = - C ;.;.w 4 P ` 5 ; ; - - - ; - : - - - = - - - - ; = ",
"- - = - - - - = = = = = = = # = = o = = = = = # > r.U.6 o O.2.5 = - # - - - - - - - - = = - - - - - ",
"= = = = = = = = = - - - = = = = = = = * # # - = o ' S = P 2.k - - - - ; - - - - - = - = - - - - = = ",
"= - = - - - = = - ; = - - = = = = - = - - - - # o o.Z o G Z = = - - - - - - - - - - - = - = = = = - ",
"= = = = = = = = = = - - - = - = - - - # - - - - $ A k ; - ; - - - - - - - ; - - - - = = = - = = = = ",
"= ; = = - - = - = = = - = - = = # - - # = - - - ; $ = - - - - - - - - - - - = - - - - ; = - - - - - ",
"; = = - = = = = # = = = - = = = = = - = - - = - - = - - = - - - = - - - - - ; - - - - = - - - = - - ",
"= = = ; = = - = = = = ; = = = = = # - - = = = - = = = = = = = - - = - = = = ; = - = - - ; - - - = - ",
"- - - = - - - = = = = = = = = = = - - - = = - # = - - - - = = - - = - - = = - - ; - = - = - - - - - ",
"= - = = - - - - = = = = = = = ; - - # - - - - - - - - - - - - - - - - - - 9 - - = - - - - - ; = - - ",
"- - = = = - = ; = = = - = = = = - ; - - - - = - - - = ; ; - - - - - - - - - - - = - - - = = - - - - ",
"- = ; = = = = = = - - = = - - - - - = - = = = - - - - - - = = = - - - - - - - - - = - ; - = = - - - ",
"- = = = = = = # # = = = = - = ; = - - - - - - - - - - - = - - - - - - ; - - - - - - - - - = ; - - - "
};
