/* XPM */
static char *result[] = {
/* columns rows colors chars-per-pixel */
"50 50 191 2 ",
"   c #27120F",
".  c #231210",
"X  c #231311",
"o  c #241110",
"O  c #251110",
"+  c #241210",
"@  c #251210",
"#  c #241310",
"$  c #251310",
"%  c #241211",
"&  c #251211",
"*  c #241311",
"=  c #251311",
"-  c #261210",
";  c #271210",
":  c #261310",
">  c #271310",
",  c #261211",
"<  c #261311",
"1  c #271311",
"2  c #241312",
"3  c #251312",
"4  c #261312",
"5  c #271312",
"6  c #251411",
"7  c #261411",
"8  c #271411",
"9  c #271511",
"0  c #251412",
"q  c #261412",
"w  c #271412",
"e  c #261512",
"r  c #271512",
"t  c #261413",
"y  c #271413",
"u  c #261513",
"i  c #271513",
"p  c #261613",
"a  c #271613",
"s  c #271514",
"d  c #271614",
"f  c #281310",
"g  c #281311",
"h  c #291311",
"j  c #281312",
"k  c #281411",
"l  c #291411",
"z  c #281511",
"x  c #291511",
"c  c #281611",
"v  c #281412",
"b  c #291412",
"n  c #281512",
"m  c #291512",
"M  c #281413",
"N  c #291413",
"B  c #281513",
"V  c #291513",
"C  c #2A1412",
"Z  c #2A1512",
"A  c #2A1513",
"S  c #2B1513",
"D  c #291612",
"F  c #281613",
"G  c #291613",
"H  c #291713",
"J  c #2A1612",
"K  c #2B1612",
"L  c #2B1712",
"P  c #2A1613",
"I  c #2B1613",
"U  c #2A1713",
"Y  c #2B1713",
"T  c #281514",
"R  c #291514",
"E  c #2A1514",
"W  c #281614",
"Q  c #291614",
"!  c #291714",
"~  c #291615",
"^  c #291715",
"/  c #2A1614",
"(  c #2B1614",
")  c #2A1714",
"_  c #2B1714",
"`  c #2B1615",
"'  c #2A1715",
"]  c #2B1715",
"[  c #2C1715",
"{  c #2A1814",
"}  c #2B1814",
"|  c #2B1815",
" . c #2B1816",
".. c #2C1814",
"X. c #2D1814",
"o. c #2C1815",
"O. c #2D1915",
"+. c #2E1915",
"@. c #2F1915",
"#. c #2D1A14",
"$. c #2D1916",
"%. c #2D1A16",
"&. c #2F1C16",
"*. c #301A15",
"=. c #301A16",
"-. c #321B16",
";. c #311C16",
":. c #331C16",
">. c #321D16",
",. c #321D17",
"<. c #331D17",
"1. c #331E17",
"2. c #341E17",
"3. c #311C18",
"4. c #351F18",
"5. c #341E19",
"6. c #351E19",
"7. c #371F18",
"8. c #361F1A",
"9. c #372019",
"0. c #372119",
"q. c #37201A",
"w. c #382019",
"e. c #392219",
"r. c #39221A",
"t. c #3A231A",
"y. c #3B231B",
"u. c #3B241A",
"i. c #3B241B",
"p. c #3C251C",
"a. c #3D261C",
"s. c #3F261D",
"d. c #3F271D",
"f. c #41281E",
"g. c #40291E",
"h. c #42281E",
"j. c #43291E",
"k. c #43291F",
"l. c #422A1E",
"z. c #432A1F",
"x. c #442A1F",
"c. c #452B1F",
"v. c #452C20",
"b. c #472D20",
"n. c #472C21",
"m. c #472E21",
"M. c #482D21",
"N. c #482F21",
"B. c #492F21",
"V. c #483022",
"C. c #4A3022",
"Z. c #4A3023",
"A. c #4C3123",
"S. c #4D3123",
"D. c #4D3124",
"F. c #4E3324",
"G. c #4F3324",
"H. c #4E3424",
"J. c #4F3424",
"K. c #4F3425",
"L. c #503425",
"P. c #513525",
"I. c #523626",
"U. c #543727",
"Y. c #543827",
"T. c #553827",
"R. c #553927",
"E. c #563927",
"W. c #563928",
"Q. c #563A28",
"!. c #573A28",
"~. c #583B29",
"^. c #593B29",
"/. c #5A3C29",
"(. c #5B3D2A",
"). c #5C3D2A",
"_. c #5C3E2B",
"`. c #5D3E2B",
"'. c #5E3E2B",
"]. c #5E3F2B",
"[. c #5F3F2C",
"{. c #5F402C",
"}. c #60402C",
"|. c #62412D",
" X c #62422D",
".X c #64432E",
"XX c #65432E",
"oX c #65442F",
"OX c #66442F",
"+X c #67442F",
"@X c #67452F",
/* pixels */
"A ] P V b m B B @ w < 1 8 B Q B B F w B 4 i 7 n v v m 1 m v v m ( m m P P R T V v m G P P B B n Q Q ",
"P V V v / / B q B n B V k B q B v B n 1 Q B V V w B n m m m m n G n G v B B B G v v v v n w V / v G ",
"o.I ] P V A < < B w w v 8 v v B i 7 8 r q i q W = = w / v V Q V V ' V v v W B Q M B v n G v V v / G ",
"P / v n Q B q W i q = q 5 @ q r 7 B m / 8 n 8 n F n 8 j V V y B B ` B v P V ' ) q B ) / Z A ) V D G ",
"( P V / / B w B 8 B i + 4 q q q i ! n 1 m V P b A ( m P A ( ( V B / / m 8 m m b / n ( I k P P b _ _ ",
"[ m m V B r n n n k v V A V k P m Z ( P ) P I b V m w V ` Q / B i q B Q w v / ] G P V ) m Z P G ( A ",
"I A _ G B m ) / b k A I C P _ Z Z m R G ' / m V V r q r Q < B Q Q i F 8 v P P [ P P v o.m I _ m m P ",
"/ ( A 1 O V / B M v B V v Q ' V k Z A G ' / b m v 8 / k A b b A V m V k m V v ] ] ( m b m P Z m _ _ ",
"m n z n V _ P V k / v 1 v w 7 8 V > w F n n M / n Q n v b b V A g ; v k n v N Q Q V n P Z o.V P V G ",
"/ m b k Z / m m l A _ m Z m G G G V 1 8 m Q < q w w w V v B i y < @ < v : < w y w B B V A P / G v V ",
"A V v R B m 1 V V V ' r / m m m n k : - 1 G k : i B B T i i y W s i 4 < = i t y w B ( b _ _ m B ) P ",
"m v G W B V V Q ~ u d q R n v V w 7 w 3 2 i w q 3 y q q w w n b G V v P P P Z V v V b / n _ J ' } U ",
"P V m V w 5 P G Q Q y r 4 4 w Q V / w w B m P ) > g V < w B w 8 G : w v Q Z n B R < k m V m _ m / P ",
"P ) v v v V Z P B n & q 8 w 8 ] V - = q < 8 n V 1 v V B y B 7 7 5 B w w G n 3.X.) ) ) 8 _ n v / G G ",
"B G w y B B B B B w w q w i i y i q 7 7 @ w w 4 w v B 8 w G F < < V v / b &.'.;._ ..} P D U G V v V ",
"V v G / V P ( ( C v V w M i w i w F i 4 q 7 q 5 w < w < F r < i n n g G *.(.h._  ./ ) G k o.V m _ / ",
"Q v P A _ / A A V v 5 1 m b g k m > B , w V V A G V G m v B g v C.c G G Y.f.G ) ) V n P P _ ) D v v ",
"V / b v ] B m V i w w w w = 0 % q i * q i q r 7 w B r n m _ 1 9.P.n w i.I.m A 1 V v 8 Q P n / V B 1 ",
"m n P / N V / b w w w q s T t + y i < B W B | G n n v m _ Y ) F.Q.] ] P.p.G P P m 8 m w B n V V ] ) ",
"w n P V B V V F B Q r F ^ B y B y B v A V B V G V V P V m A | $.I.+.h.T.l #.c.w.G k / m P n k V V V ",
"B V B G 7 B B i 8 F v B W / m / v 5 V / V w w = B V V B B / I m M.}.}.@.r.}..XC.m G n G V G w B w B ",
"Q / n q B w V V r n v / V ( $._ / v / P Q Q r q Q G Q V k v k J U v.'.n.{.J.s.P _ P m V v V B w B B ",
"G w < M 7 B m ) 8 B B B G ! / / Q B W q B w B w F w / n m G 1 l V ,.'.(.J.=.v _ b V m / v G n B V Q ",
"B v 8 V V V G G w w B B T w Q / B Q i i < V v 7 B G m Q m ..{ m 1.E.(.^.d.U.J.=.l m / P b w m n V B ",
"B n B w B q $ w q w < B Q V V P / / V r < r < , 1 B 1 < V B W ,.!.OXJ.x.B.r./ Y P / / m m G m v r w ",
"w V G B w 1 V w 7 B ] / ] P A V [ V V / Q B n b b K ( v M V 6.).Q.y.+.1 < 7 z m P n n B V B M < B w ",
"< B ) V V P _ G 8 P b P V A b P B v _ v q O.G ` E v b B ..H.R.E.5.S m R / F D P P o.U / ] v n G G B ",
"< v B n n B / B V b m v b A A V < m E G K.J.w Q G <.2.m.).W._.d.B J U r z ] } D P P P 8 / _ n n ' V ",
"w v v b P A _ _ m v A A A P v 1 w r & G.F.q G g.s.^. X|.].].`.+Xc.v i 7 V / G n 5 1 m m P | v n G n ",
"w B P A g v n P v 8 Z P v k G V v n F.S.t.F.L.oX[.).Z.:.7.8.6.2.0.Q V m ) V P / w B P / v m n V i 7 ",
"< 5 Q Q v b V V P m v V U m P P L C.].P./..XP.I.<.G V < < i q t T n D A G G ' Q $ n ] n B w i T T w ",
"k m B /  .V k P w & 5 v 5 v q.e.N.].(.XXK.j.r w w - @ w 8 4 w B G 8 v V G P m ] P P G ' V V B w ' Q ",
"V B V V 1 m P v 8 w V B >.b.!.|.].(.u.a.} - < x   b v B V 8 / A m m ( P _ _ P m _ ( P V n G V v V k ",
"G n G v V G n P ) n %.D.T.oX~.!.z.-.Z l l A   f f 1 w B B n 7 q F i V V / _ P V ( V m m V n V V v w ",
"n B G V V / n w i n k.@XE.A.V.a r w 7 V h v v 1 B < i B v v w G Q q W B B / B W n B 5 G 8 B n b V P ",
"i < v V V 8 V 1 V z v l.4.n r ! n D b m v m V w w - B V 8 G 1 B B B v 8 Q b B R B w w B G Q M V v n ",
"r r V v B w V @ < q t < 3 u p = = w B q % % % . = q $ q : w n B B G m P ) V A [ [ / Q Q / E / / v m ",
"r 9 w 4 @ 4 Q G n q 7 R d = u % , 1 4 @ : < 1 1 8 8 m n ) H ! ) _ _ A P A ( / ( Q M T y v G B V / m ",
"V n 8 B n G n M n q B < q 6 X = : = o w 7 4 & # 3 w 1 < < < 1 v w Q < R / A ( / V M V v v G ) B Q G ",
"B 8 w < r 8 w @ r B B G w w r 7 & t = % o # q & = w B B R ( v k b V V / V v n P m m B w B V n w 8 w ",
"w w n n B P z 8 V P k G V 1 8 w r F w r B v b : w 8 F m P m r n k m n V V m P P P P B q i i q = i u ",
"3 w r w w B = = w 8 V v v 8 B 8 8 v B : A m A G V m V b P m m m m m P P G ] V k V B w w r i y q = q ",
"M Q q w B v : v n n 9 8 m n r < @ B B 8 w B V / G n v G D G / n n n Z P m ] V m V Q w G v B n V v V ",
"/ w w V q q q & . + e w v i w = r < < w w V k m G G V F B v M Q w v B V V V ' n B V G m ) G n n B V ",
"G n w / B 1 B 5 : 1 n P 8 7 q = 4 + w r w < q < < & 1 w w w , v B 1 R v v 1 V v / v B / ) G b / 8 V ",
"V G m 1 V B v F w q < w 7 @ G 8 8 n G m k < B = r B G P n w k P m v P V m P P m / B w B w v Q F v Q ",
"n B w < B Q G B i q i q i < w B G m v V m m P G m D m P k n / _ V G / / V ) / G v G Q v k V / v A ( ",
"Q v 1 < < Q m / 8 < < y q i 8 B Q P G V M n w n n V n / ] n m / / P / P / V G G 1 v ' v v B V V v / ",
"B < B 8 : = 7 n 7 B v 8 8 n V / B V g k v < w G V V n B Q w v M B v V Q V B Q V / v V / Q V n G m P ",
"R B w i i q 3 . + w r w 8 v V G n V b b G v V P P A B V w n V R / Q P P v v V / V v V n v v G V V b "
};
