/* XPM */
static char *_94d16d5376e4d1efc503850b2c63713gs5lJy8dkDUhDr3C[] = {
/* columns rows colors chars-per-pixel */
"50 50 214 2 ",
"   c #0E0603",
".  c #140101",
"X  c #1B0202",
"o  c #1C0A05",
"O  c #1E0D0B",
"+  c #160B07",
"@  c #180E10",
"#  c #151617",
"$  c #230402",
"%  c #2A0302",
"&  c #230B04",
"*  c #2B0C02",
"=  c #230D0B",
"-  c #2A0C0C",
";  c #320200",
":  c #340C0E",
">  c #3A0B05",
",  c #2A1106",
"<  c #25120E",
"1  c #2A130D",
"2  c #24180C",
"3  c #2F190E",
"4  c #321504",
"5  c #3D130B",
"6  c #34180B",
"7  c #3A1A0D",
"8  c #280E10",
"9  c #330E11",
"0  c #261412",
"q  c #291513",
"w  c #251812",
"e  c #2C1915",
"r  c #2B1618",
"t  c #241C1D",
"y  c #2D1A19",
"u  c #331414",
"i  c #331A15",
"p  c #3C1F14",
"a  c #3C1619",
"s  c #321D1A",
"d  c #3B1C1C",
"f  c #3D1410",
"g  c #36211C",
"h  c #3A221D",
"j  c #392417",
"k  c #2A1E20",
"l  c #242324",
"z  c #2B2120",
"x  c #332421",
"c  c #3C2324",
"v  c #3B2A2B",
"b  c #441C0B",
"n  c #45140C",
"m  c #4D1D14",
"M  c #4E1419",
"N  c #42191C",
"B  c #421815",
"V  c #531D1B",
"C  c #450A0C",
"Z  c #422313",
"A  c #4B231C",
"S  c #44291D",
"D  c #472515",
"F  c #56281B",
"G  c #55321E",
"H  c #4C1E24",
"J  c #571B27",
"K  c #4D2B2C",
"L  c #452625",
"P  c #5D2C26",
"I  c #542A2C",
"U  c #552728",
"Y  c #4C3024",
"T  c #55352A",
"R  c #592D33",
"E  c #4F3434",
"W  c #533333",
"Q  c #5B3234",
"!  c #543A32",
"~  c #5E3539",
"^  c #5A3D3A",
"/  c #65282E",
"(  c #62332B",
")  c #653F2A",
"_  c #713C2E",
"`  c #622D35",
"'  c #623439",
"]  c #6B333A",
"[  c #643B3E",
"{  c #6B3C3E",
"}  c #693934",
"|  c #723D39",
" . c #59413A",
".. c #5D4336",
"X. c #6A4537",
"o. c #6A4A39",
"O. c #71443D",
"+. c #77523E",
"@. c #78543E",
"#. c #653D40",
"$. c #6D3B43",
"%. c #743D44",
"&. c #753F48",
"*. c #654244",
"=. c #6C4D42",
"-. c #6A4748",
";. c #724247",
":. c #744C43",
">. c #74444B",
",. c #734D4C",
"<. c #7B4849",
"1. c #69504B",
"2. c #7B5748",
"3. c #6B4E50",
"4. c #7A4B52",
"5. c #725B55",
"6. c #79696B",
"7. c #804B3D",
"8. c #804E43",
"9. c #864C55",
"0. c #85545A",
"q. c #895658",
"w. c #925E5B",
"e. c #8D5A4A",
"r. c #86624D",
"t. c #836453",
"y. c #8B6A57",
"u. c #866D5E",
"i. c #8F6056",
"p. c #916458",
"a. c #97725F",
"s. c #995E63",
"d. c #965D63",
"f. c #8D6367",
"g. c #856862",
"h. c #976569",
"j. c #927264",
"k. c #9B7E6D",
"l. c #957669",
"z. c #9C6F76",
"x. c #817A74",
"c. c #9D7774",
"v. c #A26B6E",
"b. c #A77569",
"n. c #AA6F77",
"m. c #A67575",
"M. c #99806C",
"N. c #9D8273",
"B. c #AB8773",
"V. c #AC8A76",
"C. c #A38B7C",
"Z. c #AC8C7C",
"A. c #A9807A",
"S. c #BA857D",
"D. c #B3817A",
"F. c #BC947B",
"G. c #C48A7E",
"H. c #B67C81",
"J. c #999A9C",
"K. c #AC8F81",
"L. c #BA8B86",
"P. c #AE9387",
"I. c #B99786",
"U. c #BA9695",
"Y. c #A5A09A",
"T. c #BDA396",
"R. c #A89FA0",
"E. c #AEAEAE",
"W. c #BBAEAC",
"Q. c #B1A9A9",
"!. c #B7BBBC",
"~. c #C0898F",
"^. c #CD968B",
"/. c #C79689",
"(. c #D29E91",
"). c #CA9495",
"_. c #C8A28F",
"`. c #C5A191",
"'. c #C3AB9F",
"]. c #D6A896",
"[. c #E3A99D",
"{. c #C5ADA1",
"}. c #DFADA3",
"|. c #CDB5A8",
" X c #D6B7A4",
".X c #D6BBB0",
"XX c #C1B7B8",
"oX c #E5ADA3",
"OX c #EFBAAD",
"+X c #E6B7AA",
"@X c #F4BCB1",
"#X c #DDC2B5",
"$X c #E5C3B6",
"%X c #F4C2B6",
"&X c #FCCCBC",
"*X c #FBC7B8",
"=X c #EFD3BE",
"-X c #F6D2BE",
";X c #CCCACB",
":X c #FFCBC0",
">X c #FFD5CC",
",X c #FFDBCD",
"<X c #F9D8CA",
"1X c #FFDBD2",
"2X c #E8D0C6",
"3X c #FFE2D4",
"4X c #FFE5DC",
"5X c #FFECDA",
"6X c #FFEDE2",
"7X c #FFEEE8",
"8X c #FFF5E3",
"9X c #FFF9ED",
"0X c #FFFAFC",
"qX c #EDE7E9",
/* pixels */
"q q q q q q q q 0 0 0 0 0 0 0 0 q q q q q w w w w w q q q q q q q q q q q q q q q q q q q q q q q q ",
"q q q q q q q q 0 0 0 0 0 0 0 0 q q q q q w w w w w q q q q q q q q q q q q q q q q q q q q q q q q ",
"q q q q q q q q 0 0 0 0 0 0 0 0 q q q q q w w w w w q q q q q q q q q q q q q q q q q q q q q q q q ",
"q q q q q q q q 0 0 0 0 0 0 0 0 q q q q q w w w w w q q q q q q q q q q q q q q q q q q q q q q q q ",
"q q q q q q q q q q q q q q q q q q q q q w w w w w q q q q q q q q q q q q q q q q q q q q q q q q ",
"q q q q q q q q q q q q q q q q q q q q w w w w w w q q q q q q q q q q q q q q q q q q q q q q q q ",
"q q q q q q q q q q q q q q q q q q q q w w w w w q q q q q q q q q q q q q q q q q q q q q q q q q ",
"q q q q q q q q q q q q q q q q q q q q q q q q q q q q q q q q q q q q q q q q q q q q q q q q e q ",
"q q q q q q q q q q q q q q q q = w y e < = < w = q i 0 = = q i < < w w < < w q 2 w q q q q q q q q ",
"q q q q q q q q q q q q q q q q e w < = q e i q i q - - i d i 0 0 < < < < q q 0 w q q q q q q q q q ",
"q q q q q q q q q q q q q q q q w < < q q 0 = $ q q u u q q u e e w < < w q q < q q q q q q q q q q ",
"q q q q q q q q q q q q q q q q < w q q = = - i 9 9 u u 9 - - 1 q q q q q q < < q q q q q q q q q q ",
"q q q q q q q q q q q q q q q q s w = = u d W *.R N : a K K a $ = < e e q < < w q q q q q q q q q q ",
"q q q q q q q q q q q q q q q q s = = d W ^ [ [ *.Q I ~ #.~ I L = < < w < < q q q q q q q q q q q q ",
"q q q q q q q q q q q q q q q q < < h ^ -.*.~ R [ $.>.4.;.R Q *.c s w < < q q q q q q q q q q 0 q q ",
"q q q q q q q q q q q q q q q q 8 d W *.#.~ ;.q.{ ] $.<.;.' ' #.*.K u = q i e < q q q q q q 0 0 q q ",
"q q q q q q q q q 0 q e 0 q e - 9 >.%.` n.9.] %.M 9.] <.$.0.R H f.>.d i u = e e w w w q q q q q q q ",
"q q q q q q q q 0 0 0 0 < O = u 4.9.J ).H.h.n./ / q.s.;.n.&.$.H ' $.N * - = e w w w w q q q q q q q ",
"q q q q q q q q 0 y 0 0 e = 0 E z.$.&.~.d.H.s.C M | v.q.h.h.' H U 0.~ - - 0 e w w w w q q q q q q q ",
"q q q q q q q q 0 s 0 q x 0 y 3.h.;.m.m.L.w.} P V > w.0.{ U.Q H I f.*.u i q < w w w w q q q q q q q ",
"q q q q q q q q = y = = s = e 1.[ % h.4.m.m $ m.L.n ( } Q c.,.: N ;.L - i = = e w w w q q q q q q q ",
"q q q q q q q q 0 e 0 0 y = 0 E I U { <.O.n <.%X1Xp.% O.A :.,.$ N Q i - i = < y w w w q q q q q q q ",
"q q q q q q q q q q q e q q q d % p.5 ( F F S.b./.L.F :.> =.I * d K d u i q e q w w q q q q q q q q ",
"q q q q q q q q 0 = 0 q q e y 1 f > D.m | OX; 7.n b.^.F m 2.A B * d u 1 1 q s = q w q q q q q q q q ",
"q q q q q q q q q q q q q q q q ; w.7X^.oXoXG.3X@X_ OX8.m } P A.g.X u c = s < < q q q q q q q q 0 0 ",
"q q q q q q q q q q q q q q q q n S.6X@X,X].e.,X3X^.%X(.m ( m m.U.L q & . s e y q q q q q q q q q q ",
"q q q q q q q q q q q q q q q q 5 }.7X>X3X,X[.6X,X*XoXoXn m ( L.L . q q w s = q q q q q q q q q q q ",
"q q q q q q q q q q q q q q q q A ).6X1X:X,X3X&X,X>X*X%Xi.b % * & O g e q q o s q q q q q q q q q q ",
"q q q q q q q q q q q q q q q q % O.+X4X3X}.5X8X&X+X].j.X.* 7 j g s e o q s < e q q q q q q q q 0 0 ",
"q q q q q q q q q q q q q q q q p * 7 2.$X`. X_.-XI.X.7 Z 4 * , . < q q s e < q q q q q q q q q 0 0 ",
"q q q q q q q q q q q q q q q q * p p X * D r.2.T y.k.C.u.& X j y x x y < o e g q q q q q q q q 0 0 ",
"w w q q q q q q q q q q w w w q , $ 6 4 4 V.5X X=X XM.C.|.h j o q O o e y e s < q q q q q q q q q q ",
"2 2 1 1 q q q q & s 0 k t @ l w 4 +.r.X G -X5X8X8X8Xt.C.<XC., e q q q q q q q q q q q q q q q q q q ",
"2 2 2 1 1 q q q c r O t # # #   Z F.].F b a.B.`.Z.Z.o.C.#XC.S & 1 q w q q q q q q q q q q q q q q q ",
"2 2 2 1 1 1 q q X 8 6.XX;X;X!.Y.B.e.p.r.@.2.y.I.k.T.=.N.9X'.& 1 1 w w w 2 w w w q q q q q q q q q q ",
"2 2 2 1 1 1 q q r v W.0XqX;XJ.x.N.) B.V.X.r.j.j.K.N...l.6X{.3 1 1 q q w q q q q q q q q q q q q q q ",
"2 2 2 < 1 1 0 0 = X 6.Q.R.E.E.W.P.+.a.G D P.I.I.#X$XN.u.2XT.* < q q q q q q q q q q q q q q q q q q ",
"2 2 2 < 1 0 0 0 c . y v t t l w Y y.Z.Z 7 2.D S X T .Xg.. . g q q q q q q q q q q q q q q q q q q q ",
"2 2 2 < < < 0 0 q = = x z t t + , t.2.X Z K.j.$ 6 =.|.1.& h i & q q q q q q q q q q q q q q q q q q ",
"2 2 2 < < < 0 0 = y O w O   t w * * & p * ! k., *  .P.! i i . g q q q q q q q q q q q q q q q q q q ",
"q q q q 0 0 0 r r w w w w w w w , 6 , * p ^ ! h 1 i 1.5.i & h = q q q q q q q q q q q q q q q q q q ",
"q q q q 0 0 0 r w w w w w w w w 1 i 3 & , p i = u 1 !  .q = s = q q q q q q q q q q q q q q q q q q ",
"q q 0 0 0 0 r r q q q q w w w w = 1 q , = , 1 1 q 1 s d 0 0 e < q q q q q q q q q q q q q q q q q q ",
"q q 0 0 0 0 q q q q q r r r r r = = 0 e q < e s q 0 = = 0 q q e q q q q q q q q q q q q q q q q q q ",
"q q q q q q w w q q 0 0 r 0 0 0 y 0 0 q q = = 0 0 y 0 = q q < e q q q q q q q q q q q q q q q q q q ",
"q q q q r q w w q 0 0 0 r r 0 0 y q 0 q y q 0 = 0 y e q e q < e q q q q q q q q q q q q q q q q q q ",
"r r q q w w q q q q 0 0 0 0 q 0 0 r r r y y y q q q y e q q q q q q q q q q q q q q q q q q q q q q ",
"r r q q q q q q q q 0 0 0 0 0 0 0 y y q 0 y q 0 q 0 q y 0 q y q q q q q q q q q q q q q q q q q q q ",
"q q 0 0 0 0 0 0 0 0 0 0 0 0 q q q q q q q q q q q q q q q q q q q q q q q q q q q q q q q q q q q q ",
"q q 0 0 0 0 0 0 0 0 0 0 0 0 q q q q q q q q q q q q q q q q q q q q q q q q q q q q q q q q q q q q "
};
