/* XPM */
static char *result[] = {
/* columns rows colors chars-per-pixel */
"50 50 186 2 ",
"   c black",
".  c #1D030B",
"X  c #180402",
"o  c #1B1400",
"O  c #240B0D",
"+  c #28070E",
"@  c #2E0F13",
"#  c #2F1112",
"$  c #331415",
"%  c #361519",
"&  c #3A171C",
"*  c #3C1A1C",
"=  c #3D2306",
"-  c #2E2B12",
";  c #2F2712",
":  c #350F24",
">  c #3D1B21",
",  c #3B3425",
"<  c #252627",
"1  c #4C0B00",
"2  c #4C1000",
"3  c #431E15",
"4  c #411B1E",
"5  c #581D15",
"6  c #551C04",
"7  c #5A2419",
"8  c #472718",
"9  c #7A3819",
"0  c #421C22",
"q  c #4B2225",
"w  c #4D2429",
"e  c #472120",
"r  c #52272D",
"t  c #552A2D",
"y  c #582723",
"u  c #493520",
"i  c #543B27",
"p  c #5B2D32",
"a  c #673828",
"s  c #703D2F",
"d  c #613136",
"f  c #64343A",
"g  c #6B373D",
"h  c #6C393F",
"j  c #713E3F",
"k  c #5F422B",
"l  c #534737",
"z  c #63412F",
"x  c #6A4533",
"c  c #784B38",
"v  c #695135",
"b  c #70543E",
"n  c #6E3B40",
"m  c #733E44",
"M  c #5B564A",
"N  c #6E4B43",
"B  c #764146",
"V  c #7A4443",
"C  c #7B444A",
"Z  c #784846",
"A  c #725852",
"S  c #6F5150",
"D  c #7E6E60",
"F  c #A77109",
"G  c #974F2F",
"H  c #85562A",
"J  c #885738",
"K  c #874A37",
"L  c #A87321",
"P  c #B83E75",
"I  c #81484E",
"U  c #895643",
"Y  c #835948",
"T  c #854C51",
"R  c #8A4E55",
"E  c #8E5259",
"W  c #8B5057",
"Q  c #94565C",
"!  c #995C52",
"~  c #A45C52",
"^  c #8D6551",
"/  c #B1694A",
"(  c #A86658",
")  c #B06859",
"_  c #A67556",
"`  c #AC765B",
"'  c #B37F5F",
"]  c #9D5C63",
"[  c #8A7B6D",
"{  c #94756D",
"}  c #9F7E7C",
"|  c #A16067",
" . c #A5636A",
".. c #AC676F",
"X. c #AC7862",
"o. c #BB7B6E",
"O. c #B26C74",
"+. c #BC737B",
"@. c #B67077",
"#. c #C16F62",
"$. c #D5766C",
"%. c #C1777F",
"&. c #B7831D",
"*. c #D29720",
"=. c #CA9134",
"-. c #8C857F",
";. c #998479",
":. c #AD8065",
">. c #B58167",
",. c #BC876F",
"<. c #BD8768",
"1. c #A58A78",
"2. c #E9B540",
"3. c #C18565",
"4. c #C68C6D",
"5. c #C78F77",
"6. c #D58763",
"7. c #ED8F63",
"8. c #E99979",
"9. c #F4A27E",
"0. c #FBA37A",
"q. c #E2448D",
"w. c #DA6F8C",
"e. c #C47982",
"r. c #D36290",
"t. c #4E9AC3",
"y. c #589EC1",
"u. c #65AACC",
"i. c #8F8980",
"p. c #848E9D",
"a. c #989189",
"s. c #A28E84",
"d. c #A29489",
"f. c #A09993",
"g. c #8D98A6",
"h. c #98A3AF",
"j. c #9DA9B7",
"k. c #A2ADB9",
"l. c #ABB1B4",
"z. c #B0ACAB",
"x. c #C7A588",
"c. c #DEA389",
"v. c #E9AD8C",
"b. c #FDA28E",
"n. c #F9B18A",
"m. c #F8AA98",
"M. c #F3B394",
"N. c #FFB495",
"B. c #FFBA95",
"V. c #FFBC9C",
"C. c #EABB96",
"Z. c #CFBCA1",
"A. c #D9B5A1",
"S. c #D6BEB9",
"D. c #D2BFB5",
"F. c #FFB7A3",
"G. c #F1AEBA",
"H. c #FFC192",
"J. c #E1C2A5",
"K. c #FFCBA6",
"L. c #FFC3AA",
"P. c #FFD3AE",
"I. c #FECCB1",
"U. c #FED6BC",
"Y. c #E6C5B5",
"T. c #CABBC3",
"R. c #B5E6FE",
"E. c #C6CDCD",
"W. c #CACBC9",
"Q. c #E2CCC8",
"!. c #FDDFC4",
"~. c #FBD3C2",
"^. c #EEDAD7",
"/. c #FFE1C5",
"(. c #FEE5CA",
"). c #FFEACB",
"_. c #FFEDD1",
"`. c #FFE8DB",
"'. c #FFF8DD",
"]. c #F9D5E7",
"[. c #ECEDEB",
"{. c #FFF0E8",
"}. c #FFFFF4",
"|. c #FEFEFF",
" X c #FFF7F5",
".X c None",
/* pixels */
".X.X.X.X.X.X.X.X.X.X.X.X.X.X.X.X.X.X.X.X.X.X.X.X.X.X.X.X.X.X.X.X.X.X.X.X.X.X.X.X.X.X.X.X.X.X.X.X.X.X",
".X.X.X.X.X.X.X.X.X.X.X.X.X.X.X.X.X.X.X.X.X.X.X.X.X.X.X.X.X.X.X.X.X.X.X.X.X.X.X.X.X.X.X.X.X.X.X.X.X.X",
".X.X.X.X.X.X.X.X.X.X.X.X.X.X.X.X.X.X.X.X.X.X.X.X.X.X.X.X.X.X.X.X.X.X.X.X.X.X.X.X.X.X.X.X.X.X.X.X.X.X",
".X.X.X.X.X.X.X.X.X.X.X.X.X.X.X.X.X.X.X.X.X.X.X.X.X.X.X.X.X.X.X.X.X.X.X.X.X.X.X.X.X.X.X.X.X.X.X.X.X.X",
".X.X.X.X.X.X.X.X.X.X.X.X.X.X.X.X.X.X.X.X.X.X.X.X.X.X.X.X.X.X.X.X.X.X.X.X.X.X.X.X.X.X.X.X.X.X.X.X.X.X",
".X.X.X.X.X.X.X.X.X.X.X.X.X.X.X.X.X.X.X.X.X.X.X.X.X.X.X.X.X.X.X.X.X.X.X.X.X.X.X.X.X.X.X.X.X.X.X.X.X.X",
".X.X.X.X.X.X.X.X.X.X.X.X.X.X.X.X.X.X.X.X.X.X.X.X.X.X.X.X.X.X.X.X.X.X.X.X.X.X.X.X.X.X.X.X.X.X.X.X.X.X",
".X.X.X.X.X.X.X.X.X.X.X.X.X.X.X.X.X.X.X.X.X.X.X.X.X.X.X.X.X.X.X.X.X.X.X.X.X.X.X.X.X.X.X.X.X.X.X.X.X.X",
".X.X.X.X.X.X.X.X.X.X.X.X.X.X.X.X.X.X.X.X.X.X.X.X.X.X.X.X.X.X.X.X.X.X.X.X.X.X.X.X.X.X.X.X.X.X.X.X.X.X",
".X.X.X.X.X.X.X.X.X.X.X.X.X.X.X.X.X.X.X.X.X.X.X.X.X.X.X.X.X.X.X.X.X.X.X.X.X.X.X.X.X.X.X.X.X.X.X.X.X.X",
".X.X.X.X.X.X.X.X.X.X.X.X.X.X.X.X.X.X.X.X.X.X.X.X.X.X.X.X.X.X.X.X.X.X.X.X.X.X.X.X.X.X.X.X.X.X.X.X.X.X",
".X.X.X.X.X.X.X.X.X.X.X.X.X.X.X.X.X.X.X.X.X.X.X.X.X.X.X.X.X.X.X.X.X.X.X.X.X.X.X.X.X.X.X.X.X.X.X.X.X.X",
".X.X.X.X.X.X.X.X.X.X.X.X.X.X.X.X.X.X.X.X.X0 p m t $ # * p q X .X.X.X.X.X.X.X.X.X.X.X.X.X.X.X.X.X.X.X",
".X.X.X.X.X.X.X.X.X.X.X.X.X.X.X.X.X.X.X.Xn m g p m g t B d d n % .X.X.X.X.X.X.X.X.X.X.X.X.X.X.X.X.X.X",
".X.X.X.X.X.X.X.X.X.X.X.X.X.X.X.X.X.X.Xm C p f m m p C C n r n B $ .X.X.X.X.X.X.X.X.X.X.X.X.X.X.X.X.X",
".X.X.X.X.X.X.X.X.X.X.X.X.X.X.X.X.X.Xg m t B B I n d C C C n 0 B I w .X.X.X.X.X.X.X.X.X.X.X.X.X.X.X.X",
".X.X.X.X.X.X.X.X.X.X.X.X.X.X.X.X.Xg m g | C B n w B B B B B p r ] Q .X.X.X.X.X.X.X.X.X.X.X.X.X.X.X.X",
".X.X.X.X.X.X.X.X.X.X.X.X.X.X.X.XE R p +.%.O.| p q R | m  .T f 0 f f .X.X.X.X.X.X.X.X.X.X.X.X.X.X.X.X",
".X.X.X.X.X.X.X.X.X.X.X.X.X.X.Xr ] C m e.O.e.Q : w d @.E  . .d w w | f .X.X.X.X.X.X.X.X.X.X.X.X.X.X.X",
".X.X.X.X.X.X.X.X.X.X.X.X.X.X.XR  .r e.%.%.] w a 0 * T R B +.C > e ] g .X.X.X.X.X.X.X.X.X.X.X.X.X.X.X",
".X.X.X.X.X.X.X.X.X.X.X.X.X.X.Xn C $ W W W f . _ 6.@ d j p ..B O q n t .X.X.X.X.X.X.X.X.X.X.X.X.X.X.X",
".X.X.X.X.X.X.X.X.X.X.X.X.X.X.Xw 0 q B C Z & K M.K./ O B w Q n O 0 t % .X.X.X.X.X.X.X.X.X.X.X.X.X.X.X",
".X.X.X.X.X.X.X.X.X.X.X.X.X.X.X4 & J # g 0 a 3.X.,.0.* f * C w O > r * .X.X.X.X.X.X.X.X.X.X.X.X.X.X.X",
".X.X.X.X.X.X.X.X.X.X.X.X.X.X.X$ # : } 7 s b.+ N < ! 7.i > T w 3 # & $ .X.X.X.X.X.X.X.X.X.X.X.X.X.X.X",
".X.X.X.X.X.X.X.X.X.X.X.X.X.X.X.X. P  X8.n.b.r.|.T.c H.s * R * ,.J O .X.X.X.X.X.X.X.X.X.X.X.X.X.X.X.X",
".X.X.X.X.X.X.X.X.X.X.X.X.X.X.X.X2 w.{.H.K.m.q.].|.3.V.0.3 f > X.c..X.X.X.X.X.X.X.X.X.X.X.X.X.X.X.X.X",
".X.X.X.X.X.X.X.X.X.X.X.X.X.X.X.X2 C._.(.).~.G.}.^./.N.0.$ r y 4..X.X.X.X.X.X.X.X.X.X.X.X.X.X.X.X.X.X",
".X.X.X.X.X.X.X.X.X.X.X.X.X.X.X.X1 9.'.(.!.(.)./.U.I.B.B.~ O .X.X.X.X.X.X.X.X.X.X.X.X.X.X.X.X.X.X.X.X",
".X.X.X.X.X.X.X.X.X.X.X.X.X.X.X.X.X9 B./.{.m.).).U.L.8.#.x .X.X.X.X.X.X.X.X.X.X.X.X.X.X.X.X.X.X.X.X.X",
".X.X.X.X.X.X.X.X.X.X.X.X.X.X.X.X.X.X1 G v.x.A.F.F.$.Z , .X.X.X.X.X.X.X.X.X.X.X.X.X.X.X.X.X.X.X.X.X.X",
".X.X.X.X.X.X.X.X.X.X.X.X.X.X.X.X.X.X.X.X.X8 A Z V ^ i.1.U .X.X.X.X.X.X.X.X.X.X.X.X.X.X.X.X.X.X.X.X.X",
".X.X.X.X.X.X.X.X.X.X.X.X.X.X.X.X.X.X.X.X.Xs.[.E.E.D.[ <.N.; .X.X.X.X.X.X.X.X.X.X.X.X.X.X.X.X.X.X.X.X",
".X.X.X.X.X.X.X.X.X.X.X.X.X.X.X.X.XJ H .X6 Y.|.|.|.`.[ _ P.<..X.X.X.X.X.X.X.X.X.X.X.X.X.X.X.X.X.X.X.X",
".X.X.X.X.X.X.X.X.X.X.X.X.X.X.X.X5 =.2.5 = i.f.l.a.d.M ' K.4..X.X.X.X.X.X.X.X.X.X.X.X.X.X.X.X.X.X.X.X",
".X.X.X.X.X.X.X.X.X.Xx S.S.S.z.g.p.N &.! v c ( >.>.5.b ` ).x..X.X.X.X.X.X.X.X.X.X.X.X.X.X.X.X.X.X.X.X",
".X.X.X.X.X.X.X.X.X.XQ.|.R.R.u.y.t.A F ,.Y A { ;.;.1.l X.}.Z..X.X.X.X.X.X.X.X.X.X.X.X.X.X.X.X.X.X.X.X",
".X.X.X.X.X.X.X.X.X.XZ k.j.k.k.h.g.N &.7 8 d.d.z.W.W.[ _ J.1..X.X.X.X.X.X.X.X.X.X.X.X.X.X.X.X.X.X.X.X",
".X.X.X.X.X.X.X.X.X.X.X5 5 .X5 .Xy L *..X- U z o .Xu M.A   .X.X.X.X.X.X.X.X.X.X.X.X.X.X.X.X.X.X.X.X.X",
".X.X.X.X.X.X.X.X.X.X.X.X.X.X.X.X.XH H .X- $.) .X.Xv F.z .X.X.X.X.X.X.X.X.X.X.X.X.X.X.X.X.X.X.X.X.X.X",
".X.X.X.X.X.X.X.X.X.X.X.X.X.X.X.X.X.X.X.X.Xz ( .X.Xi $.x .X.X.X.X.X.X.X.X.X.X.X.X.X.X.X.X.X.X.X.X.X.X",
".X.X.X.X.X.X.X.X.X.X.X.X.X.X.X.X.X.X.X.X.Xu U .X.X.XU c .X.X.X.X.X.X.X.X.X.X.X.X.X.X.X.X.X.X.X.X.X.X",
".X.X.X.X.X.X.X.X.X.X.X.X.X.X.X.X.X.X.X.X.X.X.X.X.X.Xz k .X.X.X.X.X.X.X.X.X.X.X.X.X.X.X.X.X.X.X.X.X.X",
".X.X.X.X.X.X.X.X.X.X.X.X.X.X.X.X.X.X.X.X.X.X.X.X.X.X.X.X.X.X.X.X.X.X.X.X.X.X.X.X.X.X.X.X.X.X.X.X.X.X",
".X.X.X.X.X.X.X.X.X.X.X.X.X.X.X.X.X.X.X.X.X.X.X.X.X.X.X.X.X.X.X.X.X.X.X.X.X.X.X.X.X.X.X.X.X.X.X.X.X.X",
".X.X.X.X.X.X.X.X.X.X.X.X.X.X.X.X.X.X.X.X.X.X.X.X.X.X.X.X.X.X.X.X.X.X.X.X.X.X.X.X.X.X.X.X.X.X.X.X.X.X",
".X.X.X.X.X.X.X.X.X.X.X.X.X.X.X.X.X.X.X.X.X.X.X.X.X.X.X.X.X.X.X.X.X.X.X.X.X.X.X.X.X.X.X.X.X.X.X.X.X.X",
".X.X.X.X.X.X.X.X.X.X.X.X.X.X.X.X.X.X.X.X.X.X.X.X.X.X.X.X.X.X.X.X.X.X.X.X.X.X.X.X.X.X.X.X.X.X.X.X.X.X",
".X.X.X.X.X.X.X.X.X.X.X.X.X.X.X.X.X.X.X.X.X.X.X.X.X.X.X.X.X.X.X.X.X.X.X.X.X.X.X.X.X.X.X.X.X.X.X.X.X.X",
".X.X.X.X.X.X.X.X.X.X.X.X.X.X.X.X.X.X.X.X.X.X.X.X.X.X.X.X.X.X.X.X.X.X.X.X.X.X.X.X.X.X.X.X.X.X.X.X.X.X",
".X.X.X.X.X.X.X.X.X.X.X.X.X.X.X.X.X.X.X.X.X.X.X.X.X.X.X.X.X.X.X.X.X.X.X.X.X.X.X.X.X.X.X.X.X.X.X.X.X.X"
};
