/* XPM */
static char *result[] = {
/* columns rows colors chars-per-pixel */
"50 50 191 2 ",
"   c #010101",
".  c #150C0A",
"X  c #1A0C0C",
"o  c #0E110D",
"O  c #15120F",
"+  c #171411",
"@  c #1B1612",
"#  c #1D1A15",
"$  c #1F1718",
"%  c #3C0E05",
"&  c #2E120B",
"*  c #3B160F",
"=  c #261412",
"-  c #291513",
";  c #231B17",
":  c #2B1815",
">  c #221E19",
",  c #2C1C1A",
"<  c #341712",
"1  c #331915",
"2  c #391D17",
"3  c #331E1A",
"4  c #3E1D19",
"5  c #25211B",
"6  c #2B231E",
"7  c #31211E",
"8  c #3C211D",
"9  c #2C2522",
"0  c #2E2923",
"q  c #2B2B27",
"w  c #372927",
"e  c #322C25",
"r  c #332D2B",
"t  c #36322B",
"y  c #3A322E",
"u  c #363231",
"i  c #3A3331",
"p  c #3D3935",
"a  c #373938",
"s  c #431B13",
"d  c #521E17",
"f  c #731809",
"g  c #691E12",
"h  c #45221C",
"j  c #4B241E",
"k  c #5F271F",
"l  c #6C2418",
"z  c #492C26",
"x  c #522821",
"c  c #5A2A23",
"v  c #41372F",
"b  c #48322B",
"n  c #483834",
"m  c #433D3A",
"M  c #543B34",
"N  c #5F3A34",
"B  c #632D24",
"V  c #6B2E26",
"C  c #782E23",
"Z  c #61342C",
"A  c #73342A",
"S  c #7D372C",
"D  c #613F38",
"F  c #7C3B32",
"G  c #4C413B",
"H  c #53433F",
"J  c #4B4742",
"K  c #4A4745",
"L  c #524945",
"P  c #5D4C41",
"I  c #4C504F",
"U  c #59534F",
"Y  c #5B5955",
"T  c #674C41",
"R  c #6C524B",
"E  c #7C5148",
"W  c #6C5B50",
"Q  c #635E5A",
"!  c #7D5E50",
"~  c #69615D",
"^  c #6C6764",
"/  c #756D67",
"(  c #77716D",
")  c #7C726C",
"_  c #7C7672",
"`  c #7F7C77",
"'  c #81291C",
"]  c #962717",
"[  c #AC2916",
"{  c #883B2F",
"}  c #9A3525",
"|  c #B93825",
" . c #994C41",
".. c #975B4F",
"X. c #A2574B",
"o. c #A65C51",
"O. c #886C5C",
"+. c #A76358",
"@. c #81756E",
"#. c #98766B",
"$. c #937B6C",
"%. c #817771",
"&. c #837A74",
"*. c #8B7C72",
"=. c #8B7B76",
"-. c #857F7A",
";. c #917D77",
":. c #B36D62",
">. c #A7736A",
",. c #B47267",
"<. c #CD5644",
"1. c #9F816F",
"2. c #8A8078",
"3. c #98867C",
"4. c #A18676",
"5. c #A7897A",
"6. c #AE8E7A",
"7. c #AC907F",
"8. c #B5917C",
"9. c #8F8985",
"0. c #948B84",
"q. c #998E85",
"w. c #958E8A",
"e. c #998F88",
"r. c #96918C",
"t. c #9C928B",
"y. c #9D9590",
"u. c #A48E81",
"i. c #B08881",
"p. c #AD9385",
"a. c #A1978F",
"s. c #B69486",
"d. c #A29691",
"f. c #A49B94",
"g. c #A99E97",
"h. c #BFA18F",
"j. c #A6A29D",
"k. c #ACA39C",
"l. c #B1A79F",
"z. c #A7A3A1",
"x. c #AFA7A1",
"c. c #AFAAA5",
"v. c #B1A7A1",
"b. c #B4AAA4",
"n. c #B9AEA7",
"m. c #B4AEA9",
"M. c #B5B0AA",
"N. c #BCB2AB",
"B. c #BEB6B1",
"V. c #BEB9B4",
"C. c #C8948C",
"Z. c #C29F8A",
"A. c #C5A08A",
"S. c #CBA58E",
"D. c #C5A694",
"F. c #CAA792",
"G. c #CDA994",
"H. c #C6AB9B",
"J. c #CDAC98",
"K. c #D3AC95",
"L. c #D6B29D",
"P. c #DBB49D",
"I. c #C9A9A3",
"U. c #C8B5A8",
"Y. c #DAB6A1",
"T. c #DFB9A2",
"R. c #C3BBB5",
"E. c #C5BEBA",
"W. c #CBC3BD",
"Q. c #FAD0B8",
"!. c #CBC6C2",
"~. c #CFC9C5",
"^. c #D2CAC4",
"/. c #D5CECA",
"(. c #D6D0CC",
"). c #DAD2CE",
"_. c #D7D5D3",
"`. c #DBD6D2",
"'. c #DED9D6",
"]. c #E0D3CC",
"[. c #E1D9D4",
"{. c #E2D9D5",
"}. c #E9E2DE",
"|. c #E7E3E0",
" X c #EAE5E1",
".X c #EEE9E6",
"XX c #EFECEA",
"oX c #F0E9E4",
"OX c #F3EEEC",
"+X c #F4F1EE",
"@X c #F3F8F7",
/* pixels */
"- : - - - - - - = = = = = - - - - - = - ; O @ @ @ ; - = = = - - - - - - - - - - - - - - - - = - - - ",
"- - - - - - - - - = = - = - = = = - - = @ 5 O @ @ @ @ - - - - = - - - - - - - - - = = - - - - - - - ",
": - : - - - = = = = = = = & = = = = = $ # 6 # # O @ # ; - - - - - - - = - - - - - - = - - - - - - - ",
"- : - - - - = = = = = = = = = = = = = = # e e 5 @ O @ = - - = - - - - = - - - : = - - - - - - - - - ",
"- - - - - - = - = - = = = = = - = - - + 9 0 0 5 6 5 @ + - - < - - - - - = - - = - - : : - - - - - 1 ",
": - - - - = - = - = - - - - = - - - @ 5 0 ; 5 5 6 t 0 @ - : - - - = - - = - - - - - - - - - - - - - ",
"- - - - - - - - - - - - - - - - - - = 9 5 @ @ 9 > 5 6 5 6 = - - - - - = = - - 1 - : - - - - - - - - ",
"- 1 - = = - - - - - - - - - - - = = = $ 0 5.  4.y 5 O ; 6 - - - - - - - - - - - - - - - - 1 - - - - ",
"- - - - - 1 - - = - - = = = = = - & X G y 7.  1.e 5 + # 6 - = - = = = = & - - - - - - - - 1 - - - - ",
"- - = - - - = - - - - - - - - - ; - X O.H 1.v P.1.> o # 0 : : = = = = = = = = = = - - - - - - - - - ",
"- - = - - - = - = - - - - - - - = & 5 5 G 1.R Q.4.# 5 # 6 - = ; - - = = = = = = = - - - - - - - 1 - ",
"- - - - = - - - - - - = - - - - - T O.  6.1.! K.1.P W > t . - - - - = - - - = - - - - - - < - : : - ",
"- - - - = = - - - - = = = = = - - h.4.@ 2.F.S.S.W m 2.6 t M = - - = - = - - - - - = - - - - - - - - ",
"- - = = - - - - - - = = = = - - - 8.U.e ) W.P.W.O p M.p G A.b - - - = = - - - - - - - = - - - - - - ",
"- - = - - - = = - = = = = - - - = 8.H.p 2.N.n.n.t j.r.G A.T.G & - - = - - = : - : : - - - - - - - - ",
"- - - - - - - 1 - = - = - - = = = h.7.2.a.t.n.n.U a.2.3.P.P.M = - = = = - = - - : - : - - - - - : - ",
"- - - - : - - - - - = = - = = - = T A.@.%.t.r.*.f.w./ H.Y.P.M - - - - - - = - - - - - - - < - - - - ",
"- - - - : - - - = = - = = = = = = 7 S.P.&.&.&.) &._ u.Y.J.A.M - : - - - - - - = - - - - - - - - - = ",
"- - - : - - : = = = = = - - = = = z K.P.J.-.N.g.n.0.p.T.P.! : 1 1 : 1 - - - - - - = - = - = - - - - ",
"= - - - - - = : - - = - - = - - - 7 O.L.L.%.k.U.n.) D.P.Z.R : , - - - - - - = - - - - - - - = - - - ",
"- - - - = - - = = - = - - - - - - = M K.G.) a.R.2.3.Q.A.3.L - : - - - - - - - - - - - - - - = - - - ",
"- - = = = = - - = - - - - - , : - - 9 $.P.p.r.w.@.L.s.6.) ~ , - - - - - - - - - 1 - - - - - - = - = ",
"- - = = = - - - = : - = - - - - - , # *.G.F.w.q.L.S.6.%.%.U , - - - - - - - - - = - - - - - - - - : ",
"- = = - - - - - = = = - - - - : - : Q _.A.F.D.J.G.6.%./ %.j.Q - - - - - - - - - = - - - - = - = - = ",
"- - - = - = = = = = = - - - - : - 9 / oX).6.G.K.6.@.) k.d.}.2.> - - - - = = - - - - - - - - - = = = ",
"= - - - = = = = = - - - 1 - : - 0 Q k.E.XX).A.s./ k..Xr.Y W. X^ , = = = = = = - - - - - - = - = - = ",
"= = - - - - - - = - - - - - = n _ b..X^ _ OX].2.j.OXOX) ).v.!.{.q 7 - - - - - - - 1 - - - - = : - = ",
"= = - - - - - - - = - = - - 9 d.[./..Xm.m `.+Xr.}.V.z.).[.W.!.^.w., - = = - : - - : - - - - = - : - ",
"= - - - - - - : - = - < - y e.^.|.`.m.).d.(.W.{.r.r g.^.'.^.L x.!.9 7 = - - - - = = - - - : = = : = ",
"= - - - = - - - = = - - : U g.b.).W.t.`.k.`.N.N.m _ W.b.R./.r.p B.E.r 7 : : - - = - - - - = = - = = ",
"= = - - = - - - - - - - e r.v.E.}.r.a./.^.|./.v.0.'.a.t.R..XE.Q a !.m.i , : : - = - - - - = - - - = ",
"- - - - : - - - = = - 9 i a.g.).R.0.v.}.V.`.N.N.d.V.^.t.k..XW.N.~ r B.c.p 7 - : - : : - - - - = : : ",
"- = - - = - - - & = - , ` N.d.g.w.0.9.^.v.!.N.R.k.v.).n.t.b. XN.a.g.N.^.y.$ - - - : - - - - - - - = ",
"- - - - - - - - - = - - r.m.9.z.OXE.f.E.d.n./.b.b.=.b.k.b.q.m.(.k.t.^.R.x.K , - : - - - - = - - = = ",
"- - - - = - = = - - = - w.v.z.i.=.-.g.E.g./.k.0.~.`.j.0./.N.r.v.W.v.f.g.W.E.K - - - = - = - - - - - ",
"= = = - - = - = - - = - y.K >.,.* I n.E.:. .w f.).J m.V.I.>.V.w.k.v.v.g.l.`.^ w - = = - - - = - = - ",
"= = - - = = - = = = = ; ;.q % | J 9 r.C.g V 2 o F 9 ( XX' i.!.E.c.g.!.f.g.N./.i : - - - - - - - - - ",
"= = = = = = - - = = = q Z : < ] N = I X.& 4 = 2 } i X #.S a r.~.s.).(.d.g.N./.i - - - = - - - - - - ",
"- - = - = - - = = = - 4 F 1 = d D = X f s - = k | u + ] A . w.,.o.@X{.0.g.N.(.u - - - = = - - - - - ",
"- = = = = - = = = - = j j = = h n = = c 3 = - c { x + | V - m | u 9.+X+...M.(.u - - - = - - - - = = ",
"= = - - - - = = - - = x h = = = = - = j 3 - - h B = $ l B = w { n C C.d.E m./.u - - - = = = = = = - ",
"= - = = = = = = = - = x h = - = - - - c s - - - c - - 8 B = u K B h ] w Y n.'.u - - = = : = = = = = ",
"= - = = - = = = - = = - - - = = = = = < - = - : c - = B 4 - , n k X } n Q m.o.r - : = - = = = : = - ",
"- = = - = = = = = = = = - = = = = = = = - - - - - - - - = = = i = = = B R <.} u - : = - : : = = - - ",
"- - - - = = - = = = - - - = = = = = = = = = = = - = = = - = = i = = $ z g [ F y : - - - - - - : = - ",
"- - - = - - - = = = = = = = - = = - = - - = = = = - - - - = - 3 - - x c 1 = } i : - = - = = : = - - ",
"= = = = - - - - = = = = = = = = - - - - - - - - - - - - - - - : - - c 2 = $ A u = - - = - - - = - - ",
"- = = = = - - - = = = = = = = - - - - - - = = - - - - - - - - - - - - - : : z b = = : - = - - - = - ",
"- = - = = = = = = = = = = = - - - - - = - & = = - - - - - = = = - - - : - - : B - - - - - - - - - - ",
"- - = = - = = = = = = = = = - - - - = = - - - - - = - - = - - - - - - - - - - - - - - - - - - - - - "
};
